<svg xmlns="http://www.w3.org/2000/svg" xml:space="preserve" viewBox="0 0 1024 1024"><path fill="#0093fe" d="M356.948 525.985c1.062-4.086 2.124-8.172 3.66-12.572.8-6.676 1.123-13.037 1.793-19.332 5.66 1.702 11.119 2.985 16.244 5.082 4.476 1.83 7.442-1.82 11.198-2.085 11.537-.816 23.092-1.385 34.636-2.1 1.811-.112 3.6-.623 5.41-.706 4.077-.187 8.18-.522 12.238-.254 7.864.52 15.76 1.059 23.539 2.257 7.484 1.153 14.839 3.147 22.25 4.777 3.7.815 7.47 1.414 11.083 2.518 5.35 1.634 10.53 3.836 15.892 5.422 6.488 1.919 13.332 2.857 19.543 5.393 3.127 1.277 5.126 1.544 7.948-.385a68 68 0 0 0 1.824-.04c.314-.019.561.101.949.814.514.696.82.937 1.127 1.177 0 0-.241 0-.072.128.495.35.82.572 1.145.795 0 0-.232-.016-.117.198.847.653 1.579 1.092 2.31 1.532 0 0-.098-.054-.098.06 0 .115.163.448.163.448l.414-.112c13.237 8.74 26.474 17.479 40.088 26.768.998.586 1.618.622 2.24.658 0 0 .046.009.126.338 7.642 3.57 15.164 6.914 22.833 9.88.725.28 2.37-1.819 3.587-2.813 0 0 .033.125.188-.055a10 10 0 0 0 .586-1.241s-.029.19.244.1c2.602-4.943 5.094-9.729 7.174-14.687.752-1.79.517-3.993.732-6.008.348-1.399.697-2.798 1.464-4.473 1.452.99 3.122 2.13 3.398 3.542.805 4.114 3.41 5.45 7.075 5.402 13.789-.18 27.582-.278 41.362-.763 5.086-.18 10.22-1 15.186-2.153 5.974-1.388 11.793-3.442 16.892-4.971.928-2.117 1.903-4.34 3.092-6.265.99 3.103 1.764 5.909 2.539 8.714.423 1.093.846 2.187 1.165 4.022-.084 5.517-.062 10.291-.265 15.354-.065 2.4.092 4.512.253 7.028-.002 1.483-.007 2.562-.296 3.712-4.089 3.503-7.363 8.474-11.823 10.016-6.986 2.416-14.744 2.89-22.231 3.472-5.527.43-11.206-.904-16.705-.346-11.984 1.216-23.84 3.68-36.011 1.875-3.023-.449-6.227.508-9.349.512-5.574.008-11.148-.228-16.723-.324-.474-.008-.944.332-1.432.407-2.935.45-5.897 1.341-8.808 1.204-6.854-.322-13.822-2.288-20.494-1.493-10.67 1.27-19.73-4.798-30.181-4.777-8.66.017-17.299-3.194-26-4.65-5.431-.908-11.597.129-16.304-2.096-7.532-3.56-17.103-3.454-22.148-11.823-3.28 5.809-2.673 6.896 2.816 8.918 2.08.765 3.569 3.132 5.327 4.77-25.71-13.877-52.928-23.312-82.386-28.228-3.387-1.132-6.189-2.269-9.051-2.45a1565 1565 0 0 0-40.13-2.02c-2.666-.1-3.502-1.133-3.535-3.46 0 0 .054.125.332.006.884-1.619 1.49-3.118 2.094-4.617" data-index="1"/><path fill="#008aff" d="M489.634 566.728c-1.768-1.612-3.258-3.979-5.337-4.744-5.489-2.022-6.096-3.11-2.816-8.918 5.045 8.369 14.616 8.263 22.148 11.823 4.707 2.225 10.873 1.188 16.303 2.097 8.702 1.455 17.34 4.666 26 4.649 10.451-.02 19.512 6.048 30.182 4.777 6.672-.795 13.64 1.171 20.494 1.493 2.911.137 5.873-.754 8.808-1.204.488-.075.958-.415 1.432-.407 5.575.096 11.15.332 16.723.324 3.122-.004 6.326-.96 9.349-.512 12.172 1.806 24.027-.659 36.01-1.875 5.5-.558 11.179.777 16.706.346 7.487-.583 15.245-1.056 22.231-3.472 4.46-1.542 7.734-6.513 11.826-9.571-1.031 8.865-1.9 17.456-3.8 25.814-1.68 7.386-4.506 14.512-6.826 21.752 0 0-.012-.07-.288.09-1.21 2.51-2.144 4.862-3.078 7.212 0 0 .004.083-.346.182-.502.676-.654 1.252-.806 1.83 0 0 .015.103-.396-.026-.664-.216-.918-.303-1.535-.373-2.51 1.925-5.324 3.45-6.678 5.813-4.064 7.098-11.391 8.332-18.014 10.86-.886.34-2.445-.054-3.241-.681-3.952-3.112-7.87-1.32-11.822-.213a75 75 0 0 0-1.737.505c-1.892-2.878-2.852-6.056-4.82-6.91-2.655-1.153-6.112-.827-9.18-.582-5.694.455-11.456 2.46-16.327-2.705-.831-.882-3.096-.672-4.668-.554-8.687.65-17.371 1.954-25.691-2.222-1.618-.812-3.792-.904-5.664-.755-6.813.545-13.594 1.71-20.41 1.924-6.983.22-13.063-6.818-20.667-2.89-5.266-3.1-9.777.082-13.654 2.565-6.086 3.898-12.513 6.334-19.476 7.717-2.959.588-6.193 1.88-6.265-3.336-.008-.616-2.26-1.2-3.472-1.8l29.787-17.418c-7.18-6.957-13.732-13.306-20.522-20.268-.925-1.04-1.612-1.464-2.299-1.89 0 0 .141-.067.068-.38-1.382-1.094-2.692-1.877-4.002-2.66 0 0 .134-.108.012-.375-.846-.509-1.57-.75-2.294-.99 0 0-.188.003-.242-.388-.549-.667-1.045-.943-1.54-1.22 0 0 .097-.043.023-.343-1.029-.767-1.984-1.233-2.94-1.699 0 0 .124-.1.004-.385-1.086-.734-2.052-1.183-3.018-1.631 0 0 .085-.055-.007-.35-1.062-.743-2.033-1.189-3.003-1.635 0 0 .095-.068-.001-.364-1.084-.718-2.072-1.14-3.059-1.562 0 0 .098-.04-.062-.178a4.5 4.5 0 0 0-1.136-.259s-.236.046-.257-.423c-1.212-1.004-2.401-1.54-3.591-2.075 0 0 .106-.037-.052-.25-.727-.431-1.296-.649-1.864-.866 0 0 .09-.034-.08-.17a4.8 4.8 0 0 0-1.162-.256s.05-.014.04.012z" data-index="2"/><path fill="#007efe" d="M628.04 680.142c-1.137.674-2.274 1.348-3.611 1.793.429-1.104 1.058-1.978 1.684-2.847-.52-.405-.752-.655-1.038-.787-.294-.136-.682-.29-.961-.206-5.87 1.741-10.911-.395-16.594-1.994-9.68-2.723-20.086-2.871-30.188-4.095-.328-.04-.666-.003-1-.007-6.437-.076-12.875-.227-19.311-.185-1.858.012-3.905.18-5.532.967-4.866 2.353-9.567 5.046-14.41 7.648l-1.75-2.245c-3.111 1.549-5.676 2.7-8.116 4.07-3.738 2.102-8.095 2.207-11.583 5.92-2.718 2.895-8.044 3.566-10.916 7.32-.165.216-.611.286-.933.304-6.696.374-12.288 2.439-18.019 6.655-5.9 4.34-13.873 5.86-20.93 8.637-.912.36-1.748.91-2.656 1.282-6.302 2.575-12.423 5.962-18.975 7.449-6.574 1.492-13.218 2.278-18.594 6.691-1.241 1.02-1.75 2.93-2.986 4.465-5.132 1.365-9.875 2.697-14.925 3.796-2.259-.26-4.289-.652-6.147-.249-6.614 1.434-13.099 3.826-19.77 4.503-4.567.463-8.274 1.028-10.767 5.142-.178.294-.904.257-1.801.479-1.196-5.601-6.168-3.556-10.096-4.155l1.73-4.952c-4.819.105-8.522 6.02-12.875 1.253-.767-1.983-1.628-5.147-3.095-5.46-4.872-1.035-9.962-1.045-14.969-1.448 9.316-6.297 18.514-12.778 27.979-18.842 11.043-7.074 22.321-13.782 33.957-20.665.789-.013.994-.183 1.077-.525 0 0 .022.082.296.024.718-.46 1.164-.863 1.61-1.265 0 0-.001.118.326.164 1.783-.967 3.237-1.98 4.692-2.994 0 0 .055.095.323.05.726-.44 1.185-.836 1.644-1.233 0 0-.003.109.31.155 1.13-.608 1.95-1.263 2.769-1.918 0 0 .047.092.315.032.718-.461 1.168-.864 1.618-1.266 0 0-.002.124.303.166 1.126-.612 1.947-1.267 2.769-1.922 0 0 .059.09.319.04.746-.399 1.233-.746 1.72-1.092 0 0-.011.087.26.048.734-.425 1.196-.813 1.658-1.2 0 0 0 .126.3.131 1.776-.998 3.253-2.002 4.73-3.006 0 0 .01.08.285.052.738-.41 1.2-.795 1.663-1.179 0 0-.005.09.319.138 2.603.368 4.881.688 7.849 1.105l-.95-5.448s.19-.28.7-.139c2.243-.153 3.977-.447 6.31-.843.177 1.701.638 3.14.405 4.457-.655 3.69 1.357 5.082 4.427 5.006 7.676-.189 15.37-1.69 22.952.97.936.33 2.703.023 3.287-.665 3.337-3.933 8.166-3.066 12.361-4.2 1.091-.294 2.707-.35 3.145-1.078 2.451-4.075 6.711-3.413 10.256-3.757 3.833-.373 6.661-1.153 8.39-4.948.47-1.034 3.047-2.218 3.87-1.796 4.375 2.24 7.556-.318 11.18-1.88 1.956-.842 4.355-.723 6.566-.887 1.993-.148 4.078.25 5.989-.182 9.56-2.168 18.263-7.577 28.263-7.9 3.109-.101 6.232 1.692 9.415 2.21 9.028 1.472 18.056 3.488 27.148 3.906 15.065.692 29 8.609 44.436 6.422 5.315-.753 10.712-.935 16.025-1.699 3.644-.524 7.209-1.604 10.913-2.067.196.605.289.842.381 1.08 0 0-.127-.091-.355-.059a5.4 5.4 0 0 0-1.082.817s.025-.133-.285-.092c-1.689 1.122-3.067 2.202-4.445 3.283 0 0-.034-.086-.32-.096-.663.444-1.04.896-1.418 1.35 0 0-.18-.033-.439-.073-.536.197-.814.434-1.092.67 0 0 .033-.149-.259-.15-1.114.68-1.937 1.361-2.76 2.043-.04.347-.223.587-.914.634-.707-.107-.917.062-.998.423 0 0-.003-.08-.283-.043-.736.446-1.193.856-1.65 1.265 0 0 .003-.146-.309-.197-1.814.917-3.318 1.884-4.821 2.851 0 0-.014-.068-.383-.055-2.443 1.04-4.517 2.067-6.591 3.095 0 0-.033-.073-.299-.026-.761.374-1.256.702-1.752 1.03 0 0 .015-.07-.328-.076-1.776.697-3.21 1.4-4.643 2.102" data-index="3"/><path fill="#00cfff" d="M397.004 265.094c13.263 8.024 26.526 16.047 39.634 24.497-4.667 5.903-9.18 11.379-13.692 16.855-2.419-.033-4.57.524-6.47 1.546-8.485 4.56-16.826 9.884-26.573 10.799-13.07 1.226-25.45 6.532-38.988 5.376-7.586-.648-15.395 1.05-23.08 1.895-7.183.79-14.368 1.651-21.492 2.836-9.112 1.516-18.165 3.383-27.241 5.106-8.07 1.532-16.662 1.835-24.05 4.973-6.85 2.909-12.267 4.645-18.117-1.353-.69-2.794-1.308-5.209-1.927-8.052-2.332-9.809-4.663-19.187-6.648-28.502 1.821 1.112 3.16 2.57 4.801 3.115 2.794.928 6.093 2.397 8.626 1.681 10.387-2.935 19.583-9.892 31.099-9.1.31.022.629-.21.953-.278 7.312-1.534 13.699-7.299 21.904-4.804.265.081.677-.088.94-.262 7.176-4.763 14.743-7.007 23.668-7.046 9.648-.043 19.187-2.936 28.732-4.942 6.533-1.373 12.738-5.696 20.003-3.652.855.24 2.158-1.247 3.296-1.853 1.915-1.018 3.94-1.85 5.775-2.993 1.35-.84 3.31-1.904 3.524-3.126.492-2.83-6.96-11.098-9.798-11.885-1.378-.383-2.56-1.477-3.83-2.249l.988-1.472c1.019.394 2.043.775 3.054 1.186 4.392 1.786 8.78 3.58 13.17 5.373 0 0-.095.012.012.303 3.072 1.754 6.037 3.216 9.001 4.678 0 0-.13.015.041.223.751.422 1.33.636 1.908.85 0 0-.079.009-.027.116.052.106.398.332.398.332z" data-index="4"/><path fill="#00dafe" d="M385.06 258.485c-4.184-1.514-8.573-3.31-12.965-5.095-1.011-.411-2.035-.792-3.054-1.186l-.988 1.472c1.27.772 2.452 1.866 3.83 2.249 2.837.787 10.29 9.055 9.798 11.885-.213 1.222-2.173 2.286-3.524 3.126-1.834 1.143-3.86 1.975-5.775 2.993-1.138.606-2.441 2.094-3.296 1.853-7.265-2.044-13.47 2.28-20.003 3.652-9.545 2.006-19.084 4.899-28.732 4.942-8.925.04-16.492 2.283-23.669 7.046-.262.174-.674.343-.94.262-8.204-2.495-14.59 3.27-21.903 4.804-.324.068-.643.3-.953.279-11.516-.793-20.712 6.164-31.099 9.1-2.533.715-5.832-.754-8.626-1.682-1.641-.545-2.98-2.003-4.96-3.43-3.26-4.992-6.016-9.603-8.771-14.214 0 0-.06-.054.047-.432-.483-1.253-1.073-2.127-1.663-3.002 0 0 .08-.022.041-.294-.406-.749-.773-1.227-1.14-1.705 0 0 .122-.002.148-.311-1.015-1.763-2.057-3.217-3.098-4.67 0 0 .087-.006.075-.314-.803-1.203-1.595-2.097-2.386-2.992 0 0-.228-.073-.16-.551-.718-2.41-1.504-4.341-2.034-6.466 5.19-1.13 10.873-.851 14.867-3.313 4.968-3.062 9.15-6.67 15.367-7.725 7.524-1.277 13.886-5.475 19.996-10.32 4.264-3.38 9.922-6.514 15.122-6.804 5.895-.327 8.182-3.574 11.57-6.947 2.83-2.816 4.043-5.273 2.944-9.119-.484-1.694-.108-3.634-.123-5.462 24.917 10.394 49.89 20.655 74.717 31.263 7.261 3.103 14.101 7.193 21.34 11.108" data-index="5"/><path fill="#0083ff" d="M662.98 659.998c-3.6.831-7.164 1.91-10.808 2.435-5.313.764-10.71.946-16.025 1.7-15.437 2.186-29.371-5.731-44.436-6.423-9.092-.418-18.12-2.434-27.148-3.906-3.183-.518-6.306-2.311-9.415-2.21-10 .323-18.703 5.732-28.263 7.9-1.91.433-3.996.034-5.989.182-2.21.164-4.61.045-6.566.887-3.624 1.562-6.805 4.12-11.18 1.88-.823-.422-3.4.762-3.87 1.796-1.729 3.795-4.557 4.575-8.39 4.948-3.545.344-7.805-.318-10.256 3.757-.438.728-2.054.784-3.145 1.078-4.195 1.134-9.024.267-12.36 4.2-.585.688-2.352.994-3.288.666-7.582-2.661-15.276-1.16-22.952-.97-3.07.075-5.082-1.318-4.427-5.007.233-1.316-.228-2.756-.405-4.457-2.333.396-4.067.69-6.142.828 16.976-9.585 34.293-19.012 51.608-28.444.287-.156.548-.364 1.42-.424 1.505-.578 2.411-1.281 3.318-1.984 0 0 .116-.18.479-.12.64-.132.916-.323 1.193-.514 0 0-.015.088.327.107 1.407-.707 2.472-1.434 3.536-2.16 0 0 .144.114.38.074.727-.407 1.217-.774 1.707-1.14 0 0-.007.128.254.11.739-.406 1.217-.792 1.695-1.179 0 0-.002.125.328.173 3.133-1.606 5.936-3.259 8.738-4.912 0 0 .105.097.433.086 1.528-.85 2.73-1.69 3.93-2.53 0 0 .14-.248.62-.056 1.301-.405 2.122-1.003 2.943-1.601 0 0 .047.012.028-.002 1.192.585 3.444 1.17 3.452 1.785.072 5.217 3.306 3.924 6.265 3.336 6.963-1.383 13.39-3.819 19.476-7.717 3.877-2.483 8.388-5.664 13.654-2.565 7.604-3.928 13.684 3.11 20.667 2.89 6.816-.214 13.597-1.38 20.41-1.924 1.872-.15 4.046-.057 5.664.755 8.32 4.176 17.004 2.873 25.69 2.222 1.573-.118 3.838-.328 4.67.554 4.87 5.166 10.632 3.16 16.326 2.705 3.068-.245 6.525-.571 9.18.581 1.968.855 2.928 4.033 4.82 6.91-.282.083.725-.22 1.737-.504 3.952-1.107 7.87-2.899 11.822.213.796.627 2.355 1.02 3.241.682 6.623-2.529 13.95-3.763 18.014-10.86 1.354-2.364 4.169-3.89 6.537-5.489.006 1.46-.209 2.61-.424 3.76 0 0-.025-.066-.329.014-.758 1.05-1.212 2.022-1.667 2.992 0 0-.022-.068-.319.013-.58.83-.863 1.578-1.147 2.327 0 0-.2-.043-.417.028-.5.617-.783 1.163-1.066 1.709 0 0-.03-.13-.199.03-.367.486-.565.813-.764 1.14 0 0-.001-.248-.155-.094-.43.695-.704 1.234-.979 1.773 0 0-.018-.036-.204.122-.386.437-.587.716-.788.995 0 0 .017-.105-.263-.036-.708.768-1.136 1.469-1.563 2.169 0 0-.052-.17-.214-.022-.358.49-.554.83-.75 1.171 0 0 .036-.218-.203-.128-.824.983-1.41 1.877-1.996 2.77 0 0-.016-.065-.197.086-.39.43-.6.708-.81.986-.001.324-.132.582-.842.98-.684.49-.92.77-1.155 1.052 0 0-.003-.156-.154 0-.375.445-.6.733-.824 1.021-.454.555-.91 1.109-1.95 1.805-1.078.786-1.572 1.43-2.066 2.075 0 0-.013-.069-.19.07-.398.392-.618.648-.838.903 0 0-.007-.054-.282.03-.574.563-.874 1.043-1.174 1.523 0 0-.086-.088-.325-.052-.458.352-.679.668-.9.984 0 0-.051-.231-.222-.14a10 10 0 0 0-.937 1.014s-.012-.245-.163-.124c-.413.41-.675.7-.937.99 0 0-.013-.212-.152-.072-.382.426-.625.712-.867.998-.013.34-.171.584-.914.9-.715.354-.953.582-1.151.852 0 0 .015.05-.32.1-1.1.73-1.866 1.41-2.632 2.089 0 0 .01-.088-.316-.087-1.435 1.023-2.544 2.044-3.652 3.065 0 0-.017-.075-.336-.084z" data-index="6"/><path fill="#00b7fe" d="M782.74 367.973c.215-.002.43-.004 1.024.421 1.243 2.122 2.104 3.816 2.767 5.118-2.379 1.618-4.31 2.918-6.225 4.241-1.603 1.109-3.065 2.502-4.801 3.32-4.286 2.018-9.94 1.949-11.772 8.068 4.635 3.947 9.532 7.732 14.042 11.58-4.422-1.087-8.516-3.316-12.188.95-.324.377-1.29.14-1.92.323-6.197 1.805-13.225 2.362-18.388 5.753-8.472 5.564-19.024 6.235-26.924 12.856-2.024 1.697-5.677 1.325-8.453 2.279-4.477 1.537-8.831 3.428-13.268 5.087-2.743 1.027-5.499 2.076-8.33 2.796-2.75.7-5.603 1-8.414 1.46-1.875.307-3.758.85-5.632.83-6.322-.066-12.26.09-18.107 3.78-4.594 2.9-10.35 4.705-16.138 1.773 1.143-4.589 2.263-8.795 3.383-13 0 0-.01-.053.364-.098 1.958-3.26 3.542-6.473 5.126-9.686 0 0 .01.076.318.03 2.107-3.033 3.905-6.018 5.704-9.004 0 0 .012.075.317.021 1.112-1.354 1.919-2.654 2.725-3.954 0 0 .026.064.207-.085.392-.43.604-.712.815-.994 0 0-.027.099.271.063 1.471-1.368 2.645-2.7 4.092-4.163.538-.842.801-1.552 1.065-2.262 0 0 .079.058.322-.005.427-.396.612-.729.798-1.062 0 0-.005.104.297.086.77-.701 1.237-1.384 1.704-2.066 0 0 .007.468.357.325 1.222-1.097 2.094-2.051 2.966-3.005 0 0 .048.174.206.034.416-.427.673-.714.931-1.002 0 0-.027.155.225.102.763-.684 1.274-1.315 1.784-1.945 0 0 0 .063.328.035 1.07-.746 1.814-1.465 2.557-2.184 0 0 .005.088.338.112 1.614-1.147 2.894-2.317 4.175-3.487 0 0 .178.014.45.045.556-.211.838-.453 1.12-.696 0 0-.023.144.3.15 5.774-1.645 11.226-3.297 17.03-5.008 1.559-1.476 2.765-2.894 4.162-4.536 7.098 5.576 13.796.07 20.672-1.105 1.517-.259 2.672-2.548 4.03-3.866.904-.879 1.744-1.951 2.833-2.494 8.101-4.032 8.119-3.997 2.452-9.746 16.36 4.64 32.331 9.228 48.304 13.815z" data-index="7"/><path fill="#00c6ff" d="M237.005 338.004c5.78 5.618 11.197 3.882 18.047.973 7.388-3.138 15.98-3.441 24.05-4.973 9.076-1.723 18.13-3.59 27.24-5.106 7.125-1.185 14.31-2.047 21.492-2.836 7.686-.845 15.495-2.543 23.08-1.895 13.54 1.156 25.92-4.15 38.989-5.376 9.747-.915 18.088-6.24 26.572-10.8 1.901-1.02 4.052-1.578 6.47-1.545 4.513-5.476 9.026-10.952 13.868-16.57.33-.14.293-.066.464.102.511.267.85.366 1.19.466 0 0-.185.114-.015.352.692.51 1.214.78 1.736 1.05 0 0-.106.061-.053.365 3.794 4.028 7.42 7.937 13.115 8.574 0 0-.096.02.012.219.36.456.613.713.865.97 0 0-.089-.022.05.265 1.415 1.093 2.692 1.898 3.968 2.704 3.233 2.058 6.465 4.116 9.5 6.545-8.987 4.884-17.663 9.637-26.602 13.827-6.267 2.938-9.343 11.11-17.656 10.528-2.172-.152-4.356-.112-6.532-.218-1.63-.08-3.466-.806-4.848-.284-4.8 1.812-9.419 4.101-14.154 6.095-3.024 1.273-6.043 2.816-9.219 3.416-8.01 1.512-16.092 2.687-24.179 3.736-3.73.484-7.541.346-11.314.513-5.133.228-10.31.128-15.388.788-10.963 1.426-21.859 3.364-32.815 4.85-4.536.614-10.206-.941-13.474 1.274-4.11 2.785-7.273 3.248-11.613 2.109-1.813-.476-3.975.034-5.91.43-9.223 1.89-18.43 3.86-27.626 5.875-3.312.726-4.658-.397-5.533-3.782-.551-2.135-3.05-3.767-4.627-6.04.316-5.81.583-11.205.85-16.601" data-index="8"/><path fill="#00bdff" d="M488.128 327.899c1.886 1.435 3.772 2.87 5.974 4.79.656.555.994.627 1.333.7 0 0 .156-.083.224.275.536.662 1.004.967 1.472 1.272 0 0-.104.025.055.19.455.378.751.59 1.048.804 0 0-.123-.009-.094.287 1.488 1.237 2.947 2.178 4.406 3.12 0 0 .027.039.076.357.531.627 1.015.937 1.498 1.246 0 0-.071.014-.046.305.342 1.098.659 1.906.626 2.876-2.757.757-5.177 1.309-7.57 1.954-3.977 1.073-8.14 1.755-11.86 3.418-5.856 2.62-11.932 5.247-16.92 9.144-3.744 2.924-7.907 2.474-11.732 3.972-6.227 2.438-12.596 4.56-19.01 6.46-8.695 2.575-17.445 4.993-26.254 7.137-6.038 1.47-12.22 2.345-18.334 3.505-8.33 1.58-16.655 3.197-24.99 4.756-1.725.323-3.649 1.028-5.195.577-4.559-1.33-8.707-1.821-13.354.365-2.566 1.207-6.095.33-9.185.47-6.055.273-12.105.631-18.16.9-5.18.23-10.548-.405-15.506.748-8.508 1.979-16.88 3.243-25.572 1.779-1.75-.295-3.76-.37-5.396.193-11.912 4.106-24.138 4.381-36.564 3.977-3.331-.109-6.744 2.31-10.54 3.561-2.484-.72-4.546-1.432-6.608-2.145.492-1.065.983-2.13 1.92-3.657.962-1.786 1.478-3.11 1.994-4.434 0 0 .034.13.16-.049.178-.523.231-.868.284-1.212 0 0-.009-.082.352-.174.66-.898.96-1.704 1.258-2.51 0 0 .032.115.215-.085.36-.8.536-1.4.712-2 0 0 .017.129.296-.016.558-1.456.837-2.768 1.117-4.08 0 0-.114-.237.293-.315 1.088-.84 1.769-1.6 2.773-2.273 3.456 2.738 5.57 6.784 11.162 5.017 7.317-2.311 14.924-3.711 22.415-5.468 1.283-.3 2.602-.465 3.913-.625 15.03-1.828 30.062-3.648 45.096-5.448.964-.115 1.95-.074 2.925-.045 3.225.098 6.468.5 9.67.286 9.198-.616 18.377-1.511 27.57-2.217 2.27-.175 4.901-.772 6.777.097 3.778 1.751 6.736.467 9.897-1.144 1.163-.593 2.384-1.155 3.643-1.463 7.567-1.849 15.184-3.5 22.72-5.46 5.008-1.302 9.895-3.056 14.862-4.523 5.026-1.484 10.062-2.941 15.132-4.264 4.052-1.058 8.414-1.313 12.194-2.95 8.563-3.708 16.662-8.53 25.32-11.968 6.035-2.395 9.136-6.557 11.135-12.318l3.456.219s-.077.02.037.218c.367.44.619.682.871.924 0 0-.084-.012-.013.323 1.707 1.421 3.342 2.507 4.977 3.593 0 0 .002.065.125.25.389.381.654.58.92.778" data-index="9"/><path fill="#009dfe" d="M542.018 513.992c-2.458 1.937-4.457 1.67-7.584.393-6.211-2.536-13.055-3.474-19.543-5.393-5.363-1.586-10.542-3.788-15.892-5.422-3.614-1.104-7.382-1.703-11.084-2.518-7.41-1.63-14.765-3.624-22.25-4.777-7.779-1.198-15.674-1.736-23.538-2.257-4.057-.268-8.16.067-12.238.254-1.81.083-3.599.594-5.41.706-11.544.715-23.099 1.284-34.636 2.1-3.756.265-6.722 3.916-11.198 2.085-5.125-2.097-10.584-3.38-16.286-5.479-2.456-5.847-4.524-11.232-6.592-16.617 0 0 .127.007.145-.326-.834-1.6-1.686-2.865-2.537-4.131 0 0-.12-.107.094-.551.304-.981.394-1.518.88-2.035 4.098.678 7.904.994 11.478 2.076 5.045 1.529 9.872 2.89 14.526-.868.209-.169.648-.085.977-.068 5.344.274 10.693.873 16.028.767 9.54-.19 19.071-.793 28.604-1.263.638-.032 1.25-.53 1.892-.579 3.594-.268 7.204-.76 10.786-.617 5.623.226 11.22 1.046 16.841 1.341 6.27.328 12.577.064 18.827.566 12.89 1.034 25.752 2.406 38.704 3.987 1.438 2.08 2.8 3.812 4.16 5.544 0 0-.076.002-.092.327.681 1.46 1.378 2.597 2.075 3.733 0 0-.127.02.017.18.43.379.716.596 1.003.813 0 0-.107-.018-.07.243.366.774.695 1.287 1.025 1.8 0 0-.127 0 .03.154.438.369.721.583 1.004.797 0 0-.098-.012-.057.252.386.759.731 1.254 1.076 1.749 2.194 2.742 4.387 5.485 6.88 8.77.614.758.929.973 1.244 1.189 0 0-.234 0-.088.14.44.392.735.643 1.03.894 0 0-.207.018-.055.153.447.37.742.606 1.037.842.549.452 1.098.903 1.787 1.917.617.849 1.094 1.134 1.57 1.42 0 0 .097.037.112.329.196.628.47.741.836.63 0 0 .147.031.165.345.017.314.357.65.357.65l.478-.004s.145.036.163.355c.198.662.475.782.849.68 0 0 .104.036.128.333.024.296.372.632.372.632l.485-.003s.171.028.184.347.345.647.345.647l.467-.018s.185.035.193.359.337.646.337.646l.46-.028s.281.077.078.57c-.329.74-.454.99-.58 1.239z" data-index="10"/><path fill="#00e5ff" d="M288.622 216.018c.396 1.924.02 3.864.504 5.558 1.1 3.846-.115 6.303-2.944 9.12-3.388 3.372-5.675 6.619-11.57 6.946-5.2.29-10.858 3.423-15.122 6.804-6.11 4.845-12.472 9.043-19.996 10.32-6.216 1.055-10.399 4.663-15.367 7.725-3.994 2.462-9.678 2.182-15.14 3.16-1.416-.487-2.305-1.016-3.193-1.545 0 0 .081-.005.034-.255-.482-.556-.916-.862-1.35-1.168 0 0-.181-.053-.098-.47-.46-.98-1.004-1.543-1.548-2.105 0 0 .08-.023.019-.277-.502-.572-.943-.89-1.384-1.206 0 0-.116-.044-.047-.438-.495-.966-1.06-1.538-1.625-2.11-.35-.011-.6-.176-.84-1.076-1.532-2.087-2.97-3.592-4.409-5.098 0 0-.327-.115-.303-.62-1.836-2.393-3.697-4.28-5.558-6.166-.54-.47-1.08-.941-1.701-2.039-.863-1.145-1.644-1.663-2.426-2.18 0 0-.335-.094-.195-.703.944-3.867.706-8.524 2.784-10.07 3.498-2.602 5.903-4.89 6.076-9.37.04-1.045 1.337-2.134 2.224-3.037 2.285-2.325 4.77-4.46 6.969-6.86 1.475-1.61 2.432-3.697 3.917-5.294 2.11-2.27 4.494-4.286 7.448-7.054l1.816 4.269-.01-1.405 12.563-.423s.436.02.913.32c4.332 1.085 8.186 1.872 12.041 2.659 0 0-.08.012.166.231 3.403.804 6.56 1.389 9.716 1.974 12.418 3.929 24.837 7.858 37.636 11.883" data-index="11"/><path fill="#00b3ff" d="M528.188 363.976c.325-.007.571.13.938.851.471.685.744.926 1.017 1.167 0 0-.106-.017-.056.292.248 3.298.446 6.286.645 9.275 0 0-.023.095-.375.129-.653.521-.955 1.01-1.258 1.497 0 0-.012-.135-.248 0-.651.87-1.067 1.603-1.482 2.337 0 0 .024-.152-.191-.108-.543.22-.872.398-1.452.69-.737.382-1.222.648-1.983.693-3.85-.29-7.512-.891-10.98-.318-7.248 1.199-14.44 2.842-21.562 4.664-2.968.76-5.707 2.424-8.539 3.704-6.728 3.043-11.858 9.782-20.408 8.73-.783-.096-1.649 1.476-2.636 1.886-4.934 2.045-9.849 4.183-14.913 5.855-4.286 1.416-8.785 2.176-13.154 3.358-1.887.51-4.467 2.488-5.392 1.851-5.067-3.486-9.48.925-14 1.281-5.554.437-10.816 2.92-17.104 3.114-17.86.55-35.654 3.149-53.484 4.847-1.031.098-2.138-.649-3.218-.978-1.999-.61-3.97-1.547-6.011-1.738-6.48-.607-12.803-1.81-19.54-.35-4.99 1.082-10.53-.373-16.214-.702-2.267-.58-4.126-1.218-6.022-1.716-2.297-.603-4.624-1.088-6.939-1.624 0 0-.085.033-.174-.35-3.539-2.048-6.989-3.716-10.437-5.75.976-1.248 1.995-2.935 2.917-2.884 9.138.51 18.073.96 27.4-.063 14.564-1.596 29.445-.248 44.19-.285 3.355-.009 7.12-1.717 9.98-.676 7.132 2.599 13.326-2.033 20.23-1.51 5.408.41 11.436-.515 15.98-4.77.377-.352 1.286-.1 1.936-.205 6.704-1.084 13.423-2.094 20.102-3.319 3.396-.623 6.864-1.28 10.045-2.554 7.49-3.002 14.066-8.561 22.83-7.918.275.02.562-.333.865-.46 7.596-3.182 15.614-5.637 22.67-9.744 6.386-3.718 14.703-3.01 19.872-9.266.673-.815 2.772-.518 4.218-.61 1.454-.091 2.919.01 4.377-.036 3.912-.125 7.823-.408 11.734-.392 3.27.013 6.468.216 7.937-3.667 1.508.688 2.717 1.22 3.926 1.752.32-.016.559.115.918.84.492.688.786.927 1.08 1.167.32-.018.562.111.92.836.477.691.761.934 1.045 1.177" data-index="12"/><path fill="#00c1ff" d="M481.048 321.518c-.982.222-2.127.15-3.293.076-1.999 5.761-5.1 9.923-11.135 12.318-8.658 3.437-16.757 8.26-25.32 11.968-3.78 1.637-8.142 1.892-12.194 2.95-5.07 1.323-10.106 2.78-15.132 4.264-4.967 1.467-9.854 3.22-14.861 4.523-7.537 1.96-15.154 3.611-22.72 5.46-1.26.308-2.48.87-3.644 1.463-3.161 1.611-6.12 2.895-9.897 1.144-1.876-.869-4.507-.272-6.778-.097-9.192.706-18.37 1.601-27.569 2.217-3.202.215-6.445-.188-9.67-.286-.974-.03-1.961-.07-2.925.045-15.034 1.8-30.066 3.62-45.096 5.448-1.311.16-2.63.325-3.913.625-7.49 1.757-15.098 3.157-22.415 5.468-5.591 1.767-7.706-2.28-11.137-5.416.72-6.546 1.74-12.607 2.758-18.668 1.625 1.858 4.124 3.49 4.675 5.625.875 3.385 2.22 4.508 5.533 3.782a2060 2060 0 0 1 27.626-5.875c1.935-.396 4.097-.906 5.91-.43 4.34 1.139 7.503.676 11.613-2.11 3.268-2.214 8.938-.659 13.474-1.274 10.956-1.485 21.852-3.423 32.815-4.849 5.077-.66 10.255-.56 15.388-.788 3.773-.167 7.583-.029 11.314-.513 8.087-1.05 16.169-2.224 24.179-3.736 3.176-.6 6.195-2.143 9.219-3.416 4.735-1.994 9.354-4.283 14.154-6.095 1.382-.522 3.217.205 4.848.284 2.176.106 4.36.066 6.532.218 8.313.582 11.389-7.59 17.656-10.528 8.94-4.19 17.615-8.943 26.795-13.545.392-.09.359-.069.402.076.042.144.34.413.34.413l.407-.118c3.966 3.027 7.933 6.055 12.061 9.377" data-index="13"/><path fill="#0af" d="M330.815 443.04c-.327.01-.58-.124-.96-.85-.486-.69-.77-.928-1.054-1.167 0 0 .18-.002.013-.142a47 47 0 0 0-1.081-.806s.212-.015.041-.148c-.501-.34-.831-.55-1.161-.758 0 0 .22.016.118-.202-.816-.564-1.53-.91-2.243-1.257 0 0-.185-.034-.137-.384-.064-.675-.176-1.001-.472-1.613-1.593-.97-3.002-1.654-4.412-2.338 0 0 .235-.039.118-.182-.458-.266-.8-.388-1.143-.511 0 0-.111-.007-.083-.396-1.456-2.013-2.94-3.637-4.068-5.322 2.598.52 4.891.959 7.062 1.738 1.18.424 2.07 1.61 3.235 2.136 11.108 5.025 22.938 2.286 34.434 2.963 10.115.595 20.284.268 30.43.352.164.002.331.088.492.075 9.928-.845 19.868-1.58 29.778-2.605 3.723-.384 7.347-1.687 11.068-2.126 4.962-.585 10.122-.108 14.926-1.24 5.465-1.287 10.626-3.855 15.932-5.833.61-.227 1.38-.5 1.935-.32 4.602 1.5 8.114.52 10.358-4.063.24-.488 1.62-.9 2.19-.666 4.08 1.68 5.724-.8 6.65-3.64 2.377-.186 4.872.384 6.12-.61 5.508-4.391 11.273-3.708 17.267-1.669.678-1.25 1.3-2.398 2.127-3.261-.61 5.496-1.425 10.708-2.24 15.92 0 0-.044-.111-.26.19-.438 7.106-.661 13.908-1.336 20.707-8.059-.183-15.666-.391-23.274-.494-.727-.01-1.441.702-2.2.971-1.519.54-3.045 1.36-4.603 1.445-8.517.461-17.046.705-25.567 1.1-1.466.068-2.913.523-4.373.77-2.426.411-4.843 1.022-7.285 1.155-8.916.488-17.837.996-26.762 1.152-10.221.178-20.45-.117-30.673.013-3.757.048-7.5.915-11.263 1.069-6.548.268-13.107.279-19.662.367-.284.003-.718-.235-.836-.479-1.837-3.796-4.491-2.04-7.333-1.21a44 44 0 0 0-2.856-.712s.14-.03.007-.204c-.408-.43-.684-.683-.96-.937 0 0 .168-.004.007-.146-.45-.367-.74-.592-1.03-.818-.327.004-.572-.136-.926-.871-.468-.692-.744-.932-1.021-1.172 0 0 .108.02.042-.216-.522-.481-.978-.727-1.434-.973 0 0-.21-.037-.22-.443-.482-.717-.952-1.027-1.422-1.338z" data-index="14"/><path fill="#00a3ff" d="M340.927 451.012c2.543-.972 5.197-2.727 7.034 1.07.118.243.552.481.836.478 6.555-.088 13.114-.1 19.662-.367 3.764-.154 7.506-1.021 11.263-1.07 10.223-.13 20.452.166 30.673-.012 8.925-.156 17.846-.664 26.762-1.152 2.442-.133 4.86-.744 7.285-1.155 1.46-.247 2.907-.702 4.373-.77 8.521-.395 17.05-.639 25.567-1.1 1.558-.084 3.084-.905 4.604-1.445.758-.27 1.472-.98 2.2-.97 7.607.102 15.214.31 23.295.84.766 1.436 1.059 2.52 1.352 3.604.764 2.745 1.528 5.489 2.075 8.667-.41.595-.601.756-.794.917l1.539.396c.092.16.183.322-.027.863 1.235 5.324 2.771 10.268 4.308 15.213-12.874-1.234-25.736-2.606-38.626-3.64-6.25-.502-12.558-.238-18.827-.566-5.622-.295-11.218-1.115-16.84-1.341-3.583-.144-7.193.349-10.787.617-.641.048-1.254.547-1.892.579-9.533.47-19.064 1.073-28.604 1.263-5.335.106-10.684-.493-16.028-.767-.33-.017-.768-.1-.977.068-4.654 3.759-9.481 2.397-14.526.868-3.574-1.082-7.38-1.398-11.715-2.296-1.639-.971-2.644-1.702-3.65-2.432 0 0 .09-.034.137-.311-.378-.647-.801-1.017-1.225-1.386 0 0-.14-.067 0-.504-.828-1.585-1.797-2.734-2.765-3.882 0 0 .177-.067.092-.252a10 10 0 0 0-.914-1.005s.14.024.08-.222c-.534-.577-1.01-.909-1.485-1.24 0 0 .1-.177.114-.456-.578-.862-1.17-1.446-1.762-2.03-.34-.01-.575-.172-.738-1.07-.377-1.723-.723-2.862-1.069-4.002" data-index="15"/><path fill="#007afe" d="M422.01 730.942c.846-1.5 1.356-3.41 2.597-4.43 5.376-4.413 12.02-5.199 18.594-6.691 6.552-1.487 12.673-4.874 18.975-7.449.908-.371 1.744-.923 2.656-1.282 7.057-2.777 15.03-4.297 20.93-8.637 5.731-4.216 11.323-6.28 18.019-6.655.322-.018.768-.088.933-.304 2.872-3.754 8.198-4.425 10.916-7.32 3.488-3.713 7.845-3.818 11.583-5.92 2.44-1.37 5.005-2.521 8.116-4.07l1.75 2.245c4.843-2.602 9.544-5.295 14.41-7.648 1.627-.786 3.674-.955 5.532-.967 6.436-.042 12.874.109 19.312.185.333.004.67-.033 1 .007 10.101 1.224 20.506 1.372 30.187 4.095 5.683 1.599 10.724 3.735 16.594 1.994.279-.083.667.07.961.206.286.132.518.382 1.038.787a81 81 0 0 0-2.025 2.91c-16.406 5.221-32.67 10.154-48.94 15.073-1.11.336-2.253.567-4.08.61-2.802-.036-4.957-.052-7.004.407-7.04 1.578-14.044 3.321-21.062 5.001 0 0 .01-.067-.396-.068-12.956 2.119-25.567 3.946-38.043 6.443-12.508 2.504-24.926 5.505-37.3 8.618-7.837 1.973-15.522 4.55-23.275 6.856 0 0-.416.082-.927.116-1.032.298-1.554.563-2.076.828 0 0-.418.121-1.01.128-1.722.378-2.85.749-3.98 1.12 0 0 .02-.087-.281-.083-1.107.356-1.911.707-2.716 1.06 0 0 .023-.07-.35-.071-3.795.967-7.216 1.936-10.638 2.906" data-index="16"/><path fill="#009dfe" d="m716.08 521.96-2.878 6.564c-5.099 1.529-10.918 3.583-16.892 4.97-4.967 1.154-10.1 1.974-15.186 2.154-13.78.485-27.573.584-41.362.763-3.666.048-6.27-1.288-7.075-5.402-.276-1.413-1.946-2.553-3.308-3.913.329-5.182.986-10.268 1.96-16.065.777-5.136 1.24-9.56 1.927-13.709.922 1.332 1.513 3.208 2.33 3.312 6.641.844 13.316 1.526 20 1.886 2.586.14 5.258-1.157 7.832-.975 8.381.591 16.401-.34 24.196-3.69 1.971-.846 4.505-.397 6.781-.515 1.761-.091 3.526-.123 5.287-.209 2.406-.117 5.183.428 7.1-.608 1.585-.857 2.154-3.594 3.24-5.106 2.062 10.443 4.055 20.493 6.048 30.544z" data-index="17"/><path fill="#007afe" d="M328.925 729.913c4.988.376 10.078.386 14.95 1.422 1.467.312 2.328 3.476 3.095 5.46 4.353 4.767 8.056-1.149 12.876-1.254l-1.731 4.952c3.928.599 8.9-1.446 10.096 4.155.897-.222 1.623-.185 1.801-.479 2.493-4.114 6.2-4.679 10.768-5.142 6.67-.677 13.155-3.069 19.769-4.503 1.858-.403 3.888-.011 5.896.473-1.358 1.481-2.773 2.506-4.188 3.53 0 0-.046-.113-.401-.224-6.678 2.035-13.034 4.094-19.302 6.393-1.538.564-2.787 1.916-4.169 2.906 0 0-.082-.04-.45-.154-4.104 1.637-7.84 3.388-11.576 5.14 0 0-.117-.038-.45-.176-2.158.828-3.983 1.795-5.808 2.761 0 0-.008-.078-.33-.077-1.013.506-1.705 1.012-2.397 1.518 0 0-.187-.055-.464-.18-1.431.567-2.586 1.258-3.741 1.948 0 0-.009-.135-.338-.18-2.801 1.282-5.274 2.61-7.746 3.94 0 0-.019-.083-.373-.085-1.635.85-2.916 1.704-4.196 2.557 0 0-.085.036-.458-.102-1.255.45-2.137 1.04-3.02 1.63 0 0 .011-.083-.255-.039-.767.376-1.267.706-1.767 1.037 0 0 .021-.09-.243-.039-.755.402-1.245.752-1.735 1.102 0 0 .02-.119-.236-.08-.762.377-1.269.713-1.776 1.05 0 0 .019-.107-.24-.061-.758.391-1.257.736-1.757 1.082 0 0 .023-.113-.307-.123-1.41.715-2.491 1.44-3.572 2.165 0 0-.022-.08-.354-.104-1.4.765-2.467 1.555-3.535 2.344 0 0-.023-.119-.308-.164-1.167.56-2.048 1.166-2.93 1.772 0 0 0-.067-.272-.007-.755.405-1.239.749-1.723 1.093 0 0 .018-.1-.316-.097-2.59 1.512-4.847 3.02-7.105 4.528 0 0-.117.016-.41-.02-.576.19-.858.416-1.139.641 0 0 .014-.12-.247-.075-.742.434-1.224.824-1.705 1.213 0 0 .002-.146-.239-.213-.452-.1-.664-.132-.884-.57-.83-1.437-1.537-3.225-2.495-3.371-4.872-.745-9.81-1.064-14.995-1.557-.243 1.296-.293 2.472-.716 3.495-.264.64-1.062 1.417-1.666 1.458-.588.04-1.772-.782-1.77-1.223.01-3.841-3.456-7.863 1.042-11.531 2.654-2.166 1.99-4.367-1.548-5.221 13.844-10.441 27.689-20.883 41.991-31.328.791-.008.974-.19 1.008-.552 0 0 .03.087.355.099 1.066-.713 1.808-1.438 2.55-2.164 0 0 .046.11.243.025.457-.334.715-.583.974-.832 0 0-.012.065-.03.038z" data-index="18"/><path fill="#01effd" d="M228.028 198.657c-4.066.435-8.254.576-12.442.717l.01 1.405-1.815-4.269c-2.954 2.768-5.337 4.784-7.448 7.054-1.485 1.597-2.442 3.683-3.917 5.293-2.2 2.4-4.684 4.536-6.969 6.861-.887.903-2.184 1.992-2.224 3.037-.173 4.48-2.578 6.768-6.076 9.37-2.078 1.546-1.84 6.203-2.838 9.905-24.36-23.668-52.006-42.802-82.94-57.5 42.839 1.683 85.049 7.176 126.659 18.127" data-index="19"/><path fill="#0071fb" d="M281.844 764.639c3.53.842 4.193 3.043 1.539 5.209-4.498 3.668-1.032 7.69-1.042 11.531-.002.44 1.182 1.262 1.77 1.223.604-.041 1.402-.818 1.666-1.458.423-1.023.473-2.199.716-3.495 5.185.493 10.123.812 14.995 1.557.958.146 1.665 1.934 2.498 3.637.02.848.03 1.025.04 1.201 0 0-.015-.05-.292.022-.762.41-1.246.747-1.73 1.084 0 0 .026-.102-.313-.103-1.352.792-2.364 1.583-3.377 2.374 0 0-.047-.081-.336-.107-.684.422-1.08.87-1.476 1.319 0 0-.172-.065-.41-.096-.51.211-.784.453-1.057.695 0 0 .032-.135-.279-.14-1.301.836-2.292 1.676-3.283 2.517 0 0-.159-.12-.372-.126-.497.245-.78.496-1.064.746 0 0 .027-.14-.264-.108-1.278.864-2.266 1.697-3.254 2.53 0 0-.165-.07-.403-.1-.513.221-.788.47-1.062.72 0 0 .023-.152-.22-.125-.777.346-1.308.663-1.84.981 0 0 .025-.087-.227-.012-.518.545-.784 1.015-1.05 1.484 0 0-.19.134-.53.053-.618.101-.895.284-1.172.466 0 0 .018-.07-.152-.053-.36.343-.551.67-.742.996l-74.39 48.802c14.402-26.133 34.685-47.063 57.161-66.578.958-.576 1.438-1.093 1.918-1.61 0 0 .048.162.218.054.416-.385.66-.662.906-.94 0 0 .004.148.164.015.398-.396.636-.658.874-.92 0 0-.014.07.247-.002.535-.532.807-.993 1.08-1.455 0 0 .035-.074.373-.093.642-.492.944-.965 1.247-1.438 0 0 .07.087.333.02a15 15 0 0 0 1.678-1.177s-.013.121.325.135c3.1-.097 4.917-1.148 4.62-4.297.486-.5.973-1 2.083-1.573 1.32-.843 2.016-1.612 2.712-2.381 0 0 .07.125.272.034.441-.387.682-.683.923-.98 0 0-.012-.026-.021-.038" data-index="20"/><path fill="#009dfe" d="m871.99 446.845-.427.1s-.415-.142-.723-.645c-.98-.973-1.59-1.705-2.329-1.873-11.15-2.535-22.28-5.19-33.496-7.402-6.934-1.369-14.007-2.04-20.926-3.352 5.502-5.107 11.012-9.78 16.287-14.703 3.402-3.174 8.592-5.031 9.004-10.742 3.127.992 5.928 1.843 8.729 2.694 0 0-.086.026.125.263 1.766.74 3.32 1.244 4.875 1.747 0 0-.095.018.12.248 5.878 2.517 11.54 4.804 17.203 7.09 0 0 .152-.007.162.415 1.531 1.351 3.053 2.281 4.574 3.211 0 0-.116.028.03.201.44.397.734.62 1.029.845 0 0-.178.005-.026.153.451.367.75.586 1.05.804 0 0-.168.009-.03.17.419.405.7.648.981.89 0 0-.12-.02-.063.221.518.52.98.799 1.442 1.077 0 0 .122.061.127.4.287.527.57.716.853.905 0 0-.127.074-.1.294.276.507.526.795.775 1.083 0 0-.132-.018-.097.3 1.5 5.534 3.112 10.717 4.305 15.995.252 1.118-1.026 2.582-1.6 3.887 0 0 .092-.018-.058-.297-4.032-1.512-7.914-2.745-11.796-3.979" data-index="21"/><path fill="#00b3ff" d="M763.995 388.98c1.57-5.958 7.224-5.889 11.51-7.908 1.736-.817 3.198-2.21 4.8-3.319 1.916-1.323 3.847-2.623 6.226-4.241a140 140 0 0 1-2.46-5.024c3.64 1.251 7.618 2.408 11.003 4.518 5.467 3.407 10.542 7.442 15.874 11.588.092.376-.03.518-.352.608-.431 2.287-.54 4.485-.674 7.217l-6.847 1.362c2.133 3.471 3.937 6.408 5.436 9.213-6.767-6.413-14.465-10.503-23.302-11.926-7.002-1.128-14.138-1.423-21.214-2.089z" data-index="22"/><path fill="#00dafe" d="M782.616 367.663c-15.848-4.277-31.82-8.864-48.575-13.553-8.464-1.04-16.155-1.905-23.823-2.938-9.828-1.323-19.661-2.637-29.449-4.222-8.958-1.45-17.86-3.256-26.766-4.936l.06-.09c11.16 1.38 22.338 2.622 33.473 4.173 18.189 2.533 36.476 4.617 54.478 8.14 12.394 2.426 24.388 6.921 36.524 10.614 1.438.437 2.64 1.649 4.078 2.812" data-index="23"/><path fill="#008aff" d="M444.276 725.071c7.465-2.439 15.15-5.016 22.987-6.989 12.374-3.113 24.792-6.114 37.3-8.618 12.476-2.497 25.087-4.324 38.075-6.432-8.054 1.9-16.555 3.75-25.037 5.682-23.69 5.396-47.373 10.828-71.062 16.234-.644.148-1.317.174-2.263.123" data-index="24"/><path fill="#00cfff" d="M633.04 497.045c-.462 4.425-.924 8.85-1.615 13.563.373-16.772-.095-33.96 1.952-50.843 1.384-11.415 6.309-22.4 9.834-33.867-.935 3.915-2.055 8.121-3.433 12.986-2.113 10.139-3.967 19.618-6.044 29.398-.367 1.801-.512 3.3-.671 5.216-.005 2.083.005 3.75-.004 5.878-.01 3.535-.004 6.61-.01 10.045-.01 1.085-.006 1.808-.016 2.954-.007 1.839 0 3.254.007 4.67" data-index="25"/><path fill="#009dfe" d="M709.382 608.946c2.005-7.086 4.832-14.212 6.51-21.598 1.9-8.358 2.77-16.95 4.084-25.884.003-1.525.008-2.604.012-4.52-.011-2.852-.021-4.868-.031-6.884-.021-4.774-.043-9.548-.001-14.704.686 6.679 1.868 13.742 1.826 20.798-.11 18.389-3.909 36.044-12.4 52.792" data-index="26"/><path fill="#00c1ff" d="M716.294 522.259c-2.207-10.349-4.2-20.399-6.251-31.305-.213-4.638-.75-8.454-.432-12.196.449-5.289 1.528-10.524 2.39-15.74.054.042.158.127.158.127-3.686 20.696 1.902 40.413 6.292 60.269.493 2.228.396 4.586.477 7.222-.87-2.468-1.644-5.274-2.634-8.377" data-index="27"/><path fill="#00b7fe" d="M813.998 434.001c7.01.984 14.083 1.655 21.017 3.024 11.216 2.213 22.345 4.867 33.496 7.402.739.168 1.35.9 2.203 1.693-21.957-6.373-44.683-9.55-67.725-11.121 1.319-.436 2.66-.71 4.325-1.003a47 47 0 0 1 2.036-.035c1.831.02 3.24.03 4.648.04" data-index="28"/><path fill="#00dafe" d="m610.539 334.767-10.66-8.874c15.813 6.73 32.282 10.67 48.985 14.733.162.358.118.42-.311.42-10.853-2.518-21.263-5.093-31.712-7.5-1.871-.43-4.156-3.177-5.943.623-.135.19-.36.598-.36.598m-.995-3.261s-.053.022 0 0" data-index="29"/><path fill="#00dafe" d="M700.087 374.105c-6.16-1.699-12.301-3.468-18.482-5.084-15.484-4.049-30.343-9.705-44.703-17.416-.153-.34.115-.628.476-.567 19.498 8.643 38.913 16.39 59.668 20.258 1.13.21 2.008 1.78 3.004 2.744 0 .027.037.065.037.065" data-index="30"/><path fill="#0af" d="M354.309 530.836c.246 2.087 1.082 3.12 3.748 3.22 13.384.5 26.763 1.176 40.13 2.02 2.862.181 5.664 1.318 8.646 2.339-17.984-1.283-36.12-2.891-54.3-4.503.227-.412.895-1.625 1.776-3.076" data-index="31"/><path fill="#00dafe" d="M236.155 354.606c-1.067 6.475-2.086 12.536-3.13 18.995-.705 1.16-1.386 1.92-2.374 2.673 4.889-14.834 5.422-30.041 3.672-45.873.266-.416.686-.4.686-.4a839 839 0 0 1 1.926 7.623c-.197 5.776-.464 11.172-.78 16.982" data-index="32"/><path fill="#01effd" d="M235.008 329.572c.001.43-.419.413-.63.405-2.654-15.07-7.621-29.284-14.775-43.129 2.582 4.304 5.338 8.915 8.252 13.842 2.49 9.695 4.82 19.073 7.153 28.882" data-index="33"/><path fill="#00cfff" d="M273.015 406.93c3.45 1.667 6.899 3.335 10.4 5.358-12.518-3.407-25.088-7.169-37.716-11.173.393-.529.844-.817 1.655-.956 8.793 2.356 17.227 4.563 25.66 6.77z" data-index="34"/><path fill="#00cfff" d="M506.353 423.97c.517-5.067 1.331-10.279 1.931-16.074-.225-.986-.235-1.388.08-1.87 1.098-1.06 1.871-2.042 2.64-3.024-.004-.002 0 .005.21-.194.412-.735.613-1.271 1.044-2.067 2.05-3.1 3.87-5.94 5.73-8.746l.116.099c-3.384 8.706-6.81 17.395-10.117 26.13-.675 1.78-.903 3.73-1.634 5.746" data-index="35"/><path fill="#00e5ff" d="M806.99 434.013c-1.34.275-2.682.55-4.375.874-15.17.095-29.99.14-45.666.082-2.538-.378-4.22-.652-5.439-.932 18.158-.04 35.852-.071 53.868-.08.752.035 1.182.046 1.613.056z" data-index="36"/><path fill="#00dafe" d="M246.994 400.01c-.45.288-.902.576-1.62.92-9.242-.98-18.218-2.014-28.325-3.18 1.935-1.23 3.07-1.952 4.553-2.766 2.41.62 4.472 1.334 7.281 2.28 6.535 1.07 12.323 1.908 18.11 2.746z" data-index="37"/><path fill="#00c1ff" d="M751.046 434.044c1.683.273 3.365.547 5.43.86-5.976 1.012-12.47 1.474-18.644 3.129-4.5 1.206-8.58 3.987-13.27 6.074-.424.008-.6-.158-.423-.446A307 307 0 0 1 740.436 435c3.827-.322 7.219-.639 10.61-.955z" data-index="38"/><path fill="#008aff" d="M402.635 738.42c1.037-.917 2.452-1.942 4.117-3.19 4.994-1.556 9.737-2.888 14.869-4.254 3.81-1.004 7.232-1.973 11.06-2.927-9.618 3.432-19.643 6.848-30.046 10.371" data-index="39"/><path fill="#00cfff" d="M283.918 412.832c2.024.367 4.351.852 6.648 1.455 1.896.498 3.755 1.136 6.197 2.005a389 389 0 0 1 11.233 8.703l-.112.134c-7.892-4.043-15.784-8.086-23.966-12.297" data-index="40"/><path fill="#00c6ff" d="M355.837 477.45a576 576 0 0 1 6.176 16.168c-.282 6.758-.606 13.12-1.196 19.41 1.298-12.191-.317-23.89-4.98-35.578" data-index="41"/><path fill="#0af" d="M618.555 554.047c-.871.778-2.516 2.877-3.241 2.596-7.669-2.965-15.191-6.31-22.834-9.903 6.916 2.437 13.873 5.336 20.945 7.92 1.364.499 3.178-.233 5.13-.613" data-index="42"/><path fill="#008aff" d="M543.34 703.076c6.68-1.667 13.683-3.41 20.724-4.988 2.047-.459 4.202-.443 6.61-.44-8.796 1.94-17.895 3.678-27.333 5.428z" data-index="43"/><path fill="#00b7fe" d="M513.012 475.366c-1.615-5.292-3.151-10.236-4.42-15.284 2.995 6.633 5.722 13.37 8.514 20.467-1.295-1.371-2.656-3.103-4.094-5.183" data-index="44"/><path fill="#008aff" d="M378.743 747.476c1.024-.864 2.273-2.216 3.811-2.78 6.268-2.3 12.624-4.358 19.362-6.402-7.328 3.087-15.072 6.071-23.173 9.182" data-index="45"/><path fill="#0af" d="M627.574 532.2c.036 1.755.27 3.959-.48 5.748-2.081 4.958-4.573 9.744-7.266 14.658 2.255-6.676 4.875-13.411 7.746-20.406" data-index="46"/><path fill="#00b3ff" d="M884.061 451.425c.357-1.609 1.635-3.073 1.383-4.191-1.193-5.278-2.806-10.46-4.291-16.06 4.807 6.06 5.879 13.505 5.952 21.665-1.147-.45-1.987-.78-3.044-1.414" data-index="47"/><path fill="#00cfff" d="M505.908 448.593c-.368-.714-.66-1.798-.975-3.23.201-7.15.424-13.952.918-21.079.225 7.764.178 15.85.057 24.309" data-index="48"/><path fill="#00b3ff" d="M870.167 420.082c-5.397-2.098-11.06-4.385-16.945-6.95 5.412 2.069 11.046 4.415 16.945 6.95" data-index="49"/><path fill="#00b3ff" d="M817.556 390.505c3.553 3.146 7.107 6.293 10.719 9.824.059.385-.311.709-.655.64-3.784-3.353-7.225-6.636-10.516-10.055l.452-.41z" data-index="50"/><path fill="#00e5ff" d="M699.937 375.964c-5.453 1.652-10.905 3.304-16.75 4.934a154 154 0 0 1 13.865-5.876c1.447.022 2.143.018 2.862.245.022.232.023.697.023.697" data-index="51"/><path fill="#00cfff" d="M453.072 300.497c-5.518-.35-9.143-4.258-12.905-8.338 4.229 2.447 8.478 5.249 12.905 8.338" data-index="52"/><path fill="#0083ff" d="M426.763 669.574c.604 1.698.924 3.534 1.234 5.31-2.968-.417-5.246-.737-7.892-1.12 1.88-1.392 4.127-2.722 6.658-4.19" data-index="53"/><path fill="#00c1ff" d="M717.723 451.599c-1.654 3.716-3.309 7.433-5.264 11.348-.3.198-.404.113-.45-.33.973-3.828 1.99-7.212 3.001-10.603-.005-.007.002-.006.198-.14.44-.344.638-.59 1.033-.882.24-.009.722-.032.91.13s.572.477.572.477" data-index="54"/><path fill="#01effd" d="M240.945 201.614c-3.696-.47-7.55-1.258-11.668-2.3a99 99 0 0 1 11.668 2.3" data-index="55"/><path fill="#00b3ff" d="M847.96 410.602c-2.652-.531-5.453-1.382-8.834-2.53-1.11-.866-1.64-1.436-2.11-2.074l.18-.203c3.538 1.496 7.075 2.991 10.763 4.807z" data-index="56"/><path fill="#00dafe" d="M530.966 375.342c-.433-2.77-.631-5.758-.869-9.109 1.58 1.178 3.199 2.719 4.893 4.33-1.37 1.648-2.58 3.104-4.024 4.779" data-index="57"/><path fill="#008aff" d="M366.711 752.45c3.384-1.614 7.12-3.365 11.248-5.041-3.37 1.684-7.133 3.294-11.248 5.041" data-index="58"/><path fill="#00c1ff" d="M724.226 444.198c-1.965 2.362-4.018 4.642-6.287 7.161-.216.24-.6-.075-.716-.569 2.17-2.61 4.454-4.725 6.74-6.841z" data-index="59"/><path fill="#00b3ff" d="M828.523 400.557c2.892 1.452 5.596 3.062 8.486 4.955.187.283.066.418-.364.455-3.18-1.618-5.93-3.274-8.681-4.93 0 0 .37-.323.559-.48" data-index="60"/><path fill="#00b3ff" d="M872.339 446.973c3.533 1.106 7.415 2.339 11.452 3.898-3.598-1.04-7.35-2.405-11.452-3.898" data-index="61"/><path fill="#00cfff" d="M648.588 416.002a76 76 0 0 1-4.817 9.484c1.265-3.088 2.893-6.197 4.817-9.484" data-index="62"/><path fill="#00b3ff" d="M811.1 384.899a129 129 0 0 1 6.266 5.337c.19.269-.11.542-.61.643-2.278-1.854-4.058-3.81-5.838-5.767z" data-index="63"/><path fill="#00cfff" d="M654.604 407.001a80 80 0 0 1-5.438 8.85c1.48-2.87 3.307-5.784 5.438-8.85" data-index="65"/><path fill="#00dafe" d="M636.614 351.41a75 75 0 0 1-8.676-4.837c-.131-.36.085-.605.437-.546 3.115 1.689 5.879 3.32 8.642 4.95 0 0-.268.289-.403.432z" data-index="66"/><path fill="#00dafe" d="M394.08 263.463a77 77 0 0 1-8.799-4.445c2.798 1.162 5.698 2.662 8.798 4.445z" data-index="67"/><path fill="#00cfff" d="M523.737 384.601c-1.669 2.413-3.338 4.827-5.32 7.366-.313.127-.39.06-.375-.321 1.65-2.812 3.286-5.243 5.112-7.514.192.16.583.469.583.469" data-index="68"/><path fill="#01effd" d="M250.627 203.999c-2.798-.449-5.954-1.034-9.36-1.878 2.834.408 5.918 1.075 9.36 1.878" data-index="69"/><path fill="#01effd" d="M205.895 264.438c.787.197 1.676.726 2.837 1.407a39 39 0 0 1 2.56 6.305c-1.812-2.221-3.555-4.801-5.397-7.712" data-index="70"/><path fill="#00cfff" d="M313.935 427.025c1.484 1.624 2.968 3.248 4.394 5.213-2.405-1.292-4.754-2.926-7.223-4.892-.122-.333-.06-.403.302-.395 1.083.03 1.805.052 2.527.074" data-index="71"/><path fill="#008aff" d="M308.9 781.43c1.965-1.337 4.222-2.845 6.862-4.345-1.934 1.397-4.251 2.785-6.862 4.345" data-index="72"/><path fill="#01effd" d="M188.814 243.427a51.4 51.4 0 0 1 5.39 5.686c-1.797-1.567-3.529-3.471-5.39-5.686" data-index="73"/><path fill="#008aff" d="M345.443 762.094a67 67 0 0 1 7.456-3.886c-2.102 1.314-4.6 2.576-7.456 3.886" data-index="74"/><path fill="#00dafe" d="M514.608 350.35c1.581 1.515 3.162 3.03 4.755 4.95.01.404-.368.706-.722.685-1.783-1.676-3.213-3.33-4.489-5.144.155-.16.456-.49.456-.49z" data-index="75"/><path fill="#009dfe" d="M705.895 616.142a63 63 0 0 1 2.92-6.954c-.701 2.124-1.714 4.409-2.92 6.954" data-index="76"/><path fill="#00dafe" d="M618.415 340.565c-2.132-1.554-4.264-3.108-6.5-5.018-.105-.357.106-.569.414-.427 2.438 1.71 4.567 3.278 6.543 4.995-.153.149-.457.45-.457.45" data-index="77"/><path fill="#007afe" d="M275.562 769.71c.61 3.016-1.207 4.067-4.366 4.152 1.086-1.358 2.57-2.69 4.366-4.153z" data-index="78"/><path fill="#00dafe" d="M623.942 344.07a264 264 0 0 1-5.279-3.293c-.248-.212.056-.513.55-.6 1.945 1.197 3.393 2.479 4.813 3.794l-.084.098z" data-index="79"/><path fill="#00c6ff" d="M340.628 450.87c.645 1.282.991 2.421 1.335 3.922-1.314-1.1-2.625-2.563-4.063-4.33.724-.113 1.576.077 2.728.409z" data-index="80"/><path fill="#008aff" d="M635.424 677.063c1.712-.979 3.786-2.006 6.257-3.025-1.7.998-3.797 1.987-6.257 3.025" data-index="81"/><path fill="#008aff" d="M360.449 755.124a32 32 0 0 1 5.519-2.73c-1.462.974-3.317 1.827-5.52 2.73z" data-index="82"/><path fill="#00cfff" d="M663.06 397.87c-1.172 1.331-2.346 2.663-3.865 4.014.852-1.499 2.05-3.018 3.555-4.472.305.065.31.458.31.458" data-index="83"/><path fill="#00c1ff" d="M486.984 326.555c-1.536-.77-3.171-1.856-4.84-3.298 1.557.757 3.149 1.87 4.84 3.298" data-index="84"/><path fill="#00dafe" d="M502.33 339.108c-1.243-.713-2.702-1.654-4.181-2.952 1.31.67 2.638 1.697 4.182 2.952z" data-index="85"/><path fill="#00e5ff" d="M681.123 381.597c-1.016.987-2.296 2.157-3.954 3.3.979-1.057 2.334-2.087 3.954-3.3" data-index="86"/><path fill="#008aff" d="M642.374 674.029c1.165-.924 2.669-1.891 4.556-2.795-1.15.959-2.685 1.855-4.556 2.795" data-index="87"/><path fill="#00cfff" d="M524.019 381.02c.485-.266.97-.532 1.953-.912.498-.114.99-.11.99-.11a240 240 0 0 1-3.017 4.37c-.208.233-.599-.077-.738-.546.177-1.247.494-2.024.812-2.801z" data-index="88"/><path fill="#01effd" d="M194.71 250.16a51 51 0 0 1 4.201 4.611c-1.312-1.217-2.674-2.786-4.2-4.612z" data-index="89"/><path fill="#00dafe" d="M524.08 359.662c-1.064-.238-2.273-.77-3.99-1.664-.702-.906-.899-1.449-1.095-1.992 0 0 .379-.302.572-.448 1.585 1.173 2.976 2.491 4.512 4.104z" data-index="91"/><path fill="#00b3ff" d="M875.025 423.603a19 19 0 0 1-4.395-2.851c1.435.615 2.843 1.586 4.395 2.85z" data-index="92"/><path fill="#009dfe" d="M665.374 660.035c.794-.935 1.903-1.956 3.381-2.972-.776.966-1.921 1.926-3.381 2.972" data-index="93"/><path fill="#009dfe" d="M657.614 665.286c1.063-.972 2.441-2.052 4.196-3.158-1.043 1-2.462 2.025-4.196 3.158" data-index="94"/><path fill="#0093fe" d="M514.012 582.429c1.162.49 2.472 1.272 3.798 2.421-1.206-.465-2.429-1.297-3.798-2.421" data-index="95"/><path fill="#00c6ff" d="M350.604 467.667c.864.435 1.87 1.166 3.112 2.116.147.758.057 1.295-.22 2.2-1.043-1.095-1.897-2.558-2.892-4.316" data-index="96"/><path fill="#00c6ff" d="M346.71 461.587c.867.85 1.836 1.999 2.662 3.507-.948-.83-1.755-2.02-2.663-3.507z" data-index="97"/><path fill="#01effd" d="M213.843 276.457c.963 1.123 2.005 2.577 3.014 4.4-1-1.11-1.968-2.59-3.014-4.4" data-index="98"/><path fill="#00c6ff" d="M353.549 472.896c.677.98 1.529 2.245 2.355 3.908-.744-.943-1.463-2.282-2.355-3.908" data-index="99"/><path fill="#00cfff" d="M458.011 304.633c-1.142-.496-2.419-1.301-3.821-2.438 1.145.49 2.416 1.309 3.821 2.438" data-index="101"/><path fill="#008aff" d="M628.4 680.099c1.073-.66 2.507-1.362 4.316-2.046-1.067.68-2.511 1.34-4.316 2.046" data-index="103"/><path fill="#008aff" d="M340.817 764.47c.98-.71 2.26-1.563 3.932-2.393-.949.765-2.29 1.508-3.932 2.394z" data-index="104"/><path fill="#008aff" d="M325.48 772.177c.75-.666 1.832-1.39 3.298-2.09-.733.693-1.85 1.361-3.298 2.09" data-index="105"/><path fill="#00dafe" d="M225.589 386.962c-.241 1.163-.757 2.487-1.602 3.996.223-1.155.775-2.495 1.602-3.996" data-index="106"/><path fill="#00cfff" d="M319.65 433.633a14.4 14.4 0 0 1 3.93 2.093c-.318.309-.517.32-.717.33-1.01-.722-2.02-1.443-3.213-2.423" data-index="107"/><path fill="#00e5ff" d="M670.554 389.862c-.582.84-1.454 1.795-2.692 2.657.557-.909 1.48-1.727 2.692-2.657" data-index="108"/><path fill="#00cfff" d="M657.655 403.05c-.511 1.167-1.318 2.467-2.467 3.816.495-1.196 1.334-2.44 2.467-3.816" data-index="109"/><path fill="#008aff" d="M298.625 787.315c.702-.685 1.714-1.476 3.116-2.253-.675.726-1.74 1.436-3.116 2.253" data-index="110"/><path fill="#00b3ff" d="M852.95 412.609c-1.396-.18-2.95-.683-4.727-1.468 1.376.194 2.973.67 4.728 1.468z" data-index="111"/><path fill="#008aff" d="M489.47 635.801c-.738.668-1.803 1.395-3.253 2.09.719-.698 1.823-1.365 3.253-2.09" data-index="112"/><path fill="#00dafe" d="M627.698 346.336c-1.22-.49-2.33-1.104-3.599-1.992-.157-.275-.101-.34.268-.352 1.464.65 2.56 1.313 3.656 1.976z" data-index="113"/><path fill="#0af" d="M356.663 526.166c-.32 1.318-.925 2.817-1.876 4.445.3-1.336.945-2.8 1.876-4.445" data-index="114"/><path fill="#008aff" d="M483.988 638.58c-.634.553-1.54 1.256-2.704 1.772.64-.666 1.536-1.145 2.704-1.773z" data-index="115"/><path fill="#0093fe" d="M492.921 568.515a9.7 9.7 0 0 1 3.365 1.713c-1.09-.244-2.143-.85-3.365-1.713" data-index="116"/><path fill="#00b7fe" d="M519.098 484.629c-.64-.795-1.337-1.932-2.013-3.43.666.788 1.31 1.938 2.013 3.43" data-index="117"/><path fill="#00dafe" d="M230.128 376.972a15.2 15.2 0 0 1-1.052 3.785c.079-1.065.5-2.277 1.052-3.785" data-index="118"/><path fill="#008aff" d="M353.491 758.301a13.9 13.9 0 0 1 3.51-1.849c-.818.683-2.002 1.226-3.51 1.85z" data-index="119"/><path fill="#008aff" d="M291.76 791.456a16.3 16.3 0 0 1 3.063-2.344c-.674.747-1.726 1.47-3.064 2.344z" data-index="120"/><path fill="#008aff" d="M321.578 774.367c.75-.68 1.818-1.47 3.259-2.228-.732.726-1.836 1.422-3.259 2.228" data-index="121"/><path fill="#009dfe" d="M702.326 621.944c-.058-.994.157-2.145.514-3.62.395-.24.649-.152 1.272.096-.258 1.23-.886 2.299-1.786 3.524" data-index="122"/><path fill="#0093fe" d="M507.019 577.402c.82.184 1.775.65 2.78 1.464-.85-.163-1.747-.672-2.78-1.464" data-index="124"/><path fill="#01effd" d="M211.608 273.087a16 16 0 0 1 2.228 2.769c-.686-.6-1.38-1.552-2.228-2.77z" data-index="125"/><path fill="#007efe" d="M327.429 730.748c-.432.66-1.174 1.385-2.284 2.084.413-.69 1.194-1.355 2.284-2.084" data-index="126"/><path fill="#009dfe" d="M700.335 624.953c.177-.817.63-1.788 1.424-2.837-.156.843-.652 1.763-1.424 2.837" data-index="127"/><path fill="#0093fe" d="M501.008 573.397c.821.168 1.792.614 2.832 1.402-.848-.147-1.766-.636-2.832-1.402" data-index="129"/><path fill="#0093fe" d="M497.958 571.465c.828.15 1.816.572 2.87 1.341-.859-.125-1.785-.597-2.87-1.341" data-index="130"/><path fill="#00dafe" d="M511.49 347.486c.91.8 1.82 1.6 2.924 2.632.194.232-.107.562-.534.58-1.25-.885-2.07-1.785-2.765-2.816.127-.13.374-.396.374-.396z" data-index="131"/><path fill="#0093fe" d="M504.013 575.383c.822.17 1.788.618 2.816 1.408-.849-.148-1.76-.638-2.816-1.408" data-index="132"/><path fill="#01effd" d="M184.715 239.128c.625.287 1.406.805 2.188 1.688-.676-.242-1.353-.85-2.188-1.688" data-index="133"/><path fill="#00dafe" d="M505.05 343.958c-.317-.807-.634-1.615-.969-2.749.938.463 1.895 1.253 2.92 2.384.068.341-.029.453-.35.451a55 55 0 0 1-1.601-.086" data-index="135"/><path fill="#00dafe" d="M649.05 340.954c1.562.08 3.101.188 4.827.633.187.336.145.396-.256.424-1.813-.303-3.226-.634-4.639-.965 0 0 .044-.062.068-.092" data-index="136"/><path fill="#009dfe" d="M651.329 669.065c.505-.608 1.328-1.29 2.516-1.949-.49.64-1.344 1.258-2.516 1.95z" data-index="137"/><path fill="#00cfff" d="M310.953 427.047c-.947-.433-1.863-.9-2.924-1.643-.145-.275-.07-.364.304-.388 1.154.626 1.933 1.277 2.713 1.927z" data-index="138"/><path fill="#00e5ff" d="M676.554 384.847c-.422.661-1.165 1.38-2.266 2.117.41-.675 1.178-1.367 2.266-2.117" data-index="139"/><path fill="#008aff" d="M286.805 794.498a18.5 18.5 0 0 1 3.037-2.36c-.677.726-1.714 1.466-3.037 2.36" data-index="140"/><path fill="#007afe" d="M280.379 765.734c-.405.658-1.1 1.427-2.164 2.205.38-.692 1.126-1.393 2.164-2.205" data-index="141"/><path fill="#00c6ff" d="M342.808 456.386c.518.282 1.11.866 1.612 1.796-.572-.267-1.055-.88-1.612-1.796" data-index="142"/><path fill="#01effd" d="M199.883 256.35c.477.299 1.042.87 1.527 1.776-.532-.279-.985-.89-1.527-1.776" data-index="143"/><path fill="#009dfe" d="M689.318 638.94c.298-.76.884-1.654 1.815-2.608-.28.785-.904 1.63-1.815 2.608" data-index="144"/><path fill="#009dfe" d="M692.467 635.15c.153-.568.581-1.269 1.34-2.027-.133.593-.6 1.244-1.34 2.027" data-index="145"/><path fill="#009dfe" d="M669.327 657.05c.467-.586 1.233-1.266 2.313-2.013-.462.596-1.238 1.259-2.313 2.014z" data-index="146"/><path fill="#01effd" d="M217.876 283.409c.528.573 1.118 1.447 1.6 2.66-.584-.561-1.061-1.46-1.6-2.66" data-index="147"/><path fill="#0093fe" d="M511.785 580.952c.521.058 1.245.3 2.032.87-.568-.009-1.199-.348-2.032-.87" data-index="148"/><path fill="#008aff" d="M436.38 727.118c.744-.36 1.873-.73 3.377-1.093-.747.365-1.87.723-3.376 1.093z" data-index="149"/><path fill="#009dfe" d="M698.788 627.234c.087-.537.37-1.285.986-2.113-.042.581-.415 1.241-.986 2.113" data-index="150"/><path fill="#008aff" d="M433.258 728.076c.545-.322 1.35-.673 2.498-1.018-.516.334-1.377.66-2.498 1.018" data-index="151"/><path fill="#008aff" d="M318.34 776.036c.565-.558 1.446-1.164 2.674-1.72-.556.59-1.457 1.13-2.675 1.72z" data-index="152"/><path fill="#008aff" d="M337.347 766.097c.574-.545 1.456-1.134 2.676-1.615-.564.596-1.466 1.083-2.676 1.615" data-index="153"/><path fill="#01effd" d="M202.908 260.376c.468.294 1.012.857 1.464 1.743-.523-.276-.955-.876-1.464-1.743" data-index="154"/><path fill="#00e5ff" d="M667.283 392.602c-.23.51-.697 1.192-1.511 1.867.193-.569.733-1.13 1.511-1.867" data-index="155"/><path fill="#007afe" d="M263.508 779.742c-.178.45-.658.967-1.337 1.361.212-.513.623-.904 1.337-1.361" data-index="156"/><path fill="#00bdff" d="M549.372 518.34c-.555-.176-1.287-.615-2.119-1.384.58.154 1.262.636 2.12 1.383z" data-index="157"/><path fill="#00c6ff" d="M324.69 437.918c.512.138 1.225.485 2.024 1.158-.551-.099-1.187-.524-2.024-1.158" data-index="159"/><path fill="#00dafe" d="M508.2 344.802c.636.43 1.272.86 1.953 1.646.044.357-.168.568-.427.437-.755-.708-1.252-1.286-1.693-1.92z" data-index="160"/><path fill="#00dafe" d="M227.65 383.01c-.03.652-.33 1.458-.963 2.325.008-.683.35-1.428.962-2.325z" data-index="161"/><path fill="#009dfe" d="M681.318 646.973c.208-.54.702-1.184 1.519-1.889-.195.555-.714 1.17-1.519 1.89z" data-index="162"/><path fill="#0093fe" d="M517.928 585.45c.557.15 1.244.576 2.022 1.319-.57-.136-1.231-.59-2.022-1.318z" data-index="163"/><path fill="#00dafe" d="M527.62 379.332c.164-.542.58-1.276 1.299-2.147-.147.56-.598 1.257-1.3 2.147z" data-index="164"/><path fill="#00dafe" d="M699.892 375.036c-.697.004-1.393.008-2.438.007.429-.32 1.206-.636 2.308-.944.325.006.289-.032.255.198-.064.4-.095.57-.125.739" data-index="165"/><path fill="#00e5ff" d="M663.335 397.738c-.274.132-.28-.26-.29-.457.304-.621.618-1.046 1.144-1.638-.053.543-.316 1.253-.854 2.095" data-index="166"/><path fill="#00b7fe" d="M508.652 458.743c-.512.068-1.025-.064-1.538-.196.193-.16.385-.322.782-.514.492.045.675.225.756.71" data-index="167"/><path fill="#008aff" d="M357.68 756.49c.386-.382 1.078-.888 2.129-1.384-.369.427-1.097.843-2.13 1.384z" data-index="168"/><path fill="#008aff" d="M493.528 633.684c-.174.31-.652.697-1.454 1.09.167-.334.659-.674 1.454-1.09" data-index="169"/><path fill="#009dfe" d="M678.777 649.442c.071-.318.371-.798.97-1.351-.047.348-.394.769-.97 1.351" data-index="170"/><path fill="#007afe" d="M281.943 797.455c.04-.325.306-.795.867-1.326-.017.353-.329.767-.867 1.326" data-index="171"/><path fill="#009dfe" d="M663.085 660.366c.37-.358.845-.348 1.674-.315-.025.404-.406.785-1.04 1.28-.345-.123-.438-.36-.634-.965" data-index="173"/><path fill="#008aff" d="M302.304 785.092q.277-.42 1.45-1.009-.276.42-1.45 1.01z" data-index="174"/><path fill="#009dfe" d="M695.281 631.887q.005-.59.833-1.622-.005.591-.833 1.622" data-index="175"/><path fill="#007afe" d="M279.364 798.992c-.052-.258.139-.584.534-.916.04.278-.126.563-.534.916" data-index="176"/><path fill="#008aff" d="M305.415 783.284c.172-.313.654-.703 1.455-1.125-.168.327-.656.688-1.455 1.125" data-index="177"/><path fill="#007afe" d="M267.087 776.585c-.06.304-.333.765-.9 1.282.034-.337.361-.73.9-1.282" data-index="178"/><path fill="#008aff" d="M316.333 777.115q.27-.436 1.45-1.025c-.18.292-.662.631-1.45 1.025" data-index="179"/><path fill="#008aff" d="M296.759 788.495c.139-.31.535-.759 1.265-1.192-.113.361-.56.708-1.265 1.192" data-index="181"/><path fill="#01effd" d="M201.608 258.857c.3.085.741.402 1.232 1.013-.33-.064-.71-.422-1.232-1.013" data-index="183"/><path fill="#008aff" d="M329.342 770.14c.187-.292.686-.637 1.497-1.016-.187.299-.685.631-1.497 1.017z" data-index="184"/><path fill="#008aff" d="M331.34 769.126c.193-.29.7-.626 1.52-.989-.192.297-.699.62-1.52.989" data-index="185"/><path fill="#008aff" d="M333.347 768.15c.181-.297.671-.647 1.47-1.036-.18.302-.67.643-1.47 1.037z" data-index="186"/><path fill="#008aff" d="M335.329 767.105q.282-.443 1.495-.994-.283.444-1.495.994" data-index="187"/><path fill="#01effd" d="M204.62 262.905c.292.084.726.39 1.205.986-.324-.06-.692-.412-1.204-.986z" data-index="188"/><path fill="#00dafe" d="M396.07 264.545c-.421.058-1-.156-1.748-.644.418-.058 1.005.157 1.749.644z" data-index="189"/><path fill="#009dfe" d="M655.805 666.498c.133-.303.511-.755 1.22-1.202-.104.355-.54.704-1.22 1.202" data-index="190"/><path fill="#008aff" d="M441.307 725.963c.2-.346.722-.61 1.542-.9-.208.31-.713.645-1.542.9" data-index="191"/><path fill="#01effd" d="M216.785 281.414c.297.172.664.65 1.058 1.44-.312-.17-.65-.652-1.058-1.44" data-index="192"/><path fill="#0083ff" d="M393.528 688.694c-.149.321-.595.724-1.351 1.165.143-.335.599-.71 1.35-1.165z" data-index="193"/><path fill="#0083ff" d="M405.524 681.685c-.152.32-.602.723-1.365 1.16.147-.335.607-.706 1.365-1.16" data-index="195"/><path fill="#008aff" d="M283.315 796.07c.21-.26.742-.578 1.593-.907-.21.276-.741.562-1.593.906z" data-index="197"/><path fill="#00cfff" d="M440.07 291.584c-.404-.008-.926-.279-1.52-.852.42-.006.911.291 1.52.852" data-index="198"/><path fill="#0083ff" d="M412.549 677.713c-.16.317-.622.705-1.399 1.12.156-.332.626-.69 1.399-1.12" data-index="199"/><path fill="#008aff" d="M633.329 678.07c.178-.282.673-.61 1.472-.97-.183.285-.669.604-1.472.97" data-index="200"/><path fill="#008aff" d="M647.469 671.332c.154-.323.61-.733 1.387-1.175-.149.341-.617.715-1.387 1.175" data-index="202"/><path fill="#00c6ff" d="M344.545 458.803c.313.098.788.43 1.307 1.077-.352-.071-.748-.458-1.307-1.077" data-index="203"/><path fill="#00c6ff" d="M330.92 443.283c.365.069.835.38 1.295.992-.404-.049-.797-.4-1.296-.992z" data-index="204"/><path fill="#00c6ff" d="M332.614 445.022c.299.046.755.292 1.265.827-.333-.016-.72-.322-1.265-.827" data-index="205"/><path fill="#00c6ff" d="M322.956 436.297c.107-.252.306-.262.806-.286.413.314.525.64.57 1.223-.472-.06-.878-.378-1.376-.937" data-index="206"/><path fill="#00bdff" d="M542.382 514c-.239-.257-.114-.506.243-1.104.615-.032.999.285 1.482.833-.387.247-.874.263-1.725.27z" data-index="207"/><path fill="#0af" d="M592.102 546.253c-.369.137-.99.1-1.832-.171.379-.158.98-.08 1.832.17z" data-index="208"/><path fill="#00b3ff" d="M879.432 428.037c-.313-.058-.775-.337-1.28-.916.35.032.74.364 1.28.916" data-index="209"/><path fill="#00dafe" d="M228.578 380.952c.091.42-.085 1.02-.503 1.833-.082-.41.077-1.03.503-1.833" data-index="210"/><path fill="#00bdff" d="M536.417 506.07c-.305-.073-.782-.358-1.322-.946.342.043.746.388 1.322.946" data-index="211"/><path fill="#00dafe" d="M504.016 340.685c-.38-.054-.863-.364-1.374-.978.404.038.837.38 1.374.978" data-index="212"/><path fill="#00dafe" d="M529.353 377.085c.049-.386.35-.874.961-1.372-.03.417-.37.844-.961 1.372" data-index="213"/><path fill="#009dfe" d="M697.377 629.05c.014-.413.298-.959.9-1.588.001.43-.315.943-.9 1.588" data-index="214"/><path fill="#00c6ff" d="M349.524 465.896c.274.148.697.518 1.072 1.212-.34-.113-.63-.552-1.072-1.212" data-index="215"/><path fill="#00b7fe" d="M523.104 490.652c-.266-.19-.61-.684-.987-1.492.281.187.595.687.987 1.492" data-index="216"/><path fill="#00dafe" d="M497.032 334.69c-.369-.059-.837-.364-1.309-.966.4.042.805.382 1.309.966" data-index="217"/><path fill="#0093fe" d="M509.901 579.412c.394.027.89.303 1.402.884-.422-.009-.861-.321-1.402-.884" data-index="218"/><path fill="#00b7fe" d="M521.074 487.69c-.274-.197-.603-.71-.957-1.537.284.198.592.709.957 1.537" data-index="219"/><path fill="#0093fe" d="M490.985 567.416c.42-.057.989.16 1.724.647-.413.055-.995-.16-1.724-.647" data-index="220"/><path fill="#009dfe" d="M704.73 618.209c-.029-.373.123-.95.596-1.595.075.417-.17.904-.596 1.595" data-index="221"/><path fill="#00c6ff" d="M336.914 449.298c.181-.026.457.228.874.728-.165.015-.472-.216-.874-.728" data-index="222"/><path fill="#00c6ff" d="M333.942 446.284c.184-.033.46.207.88.683-.168.021-.477-.194-.88-.683" data-index="223"/><path fill="#00c6ff" d="M335.913 448.319c.173-.04.462.186.914.636-.158.026-.478-.173-.914-.636" data-index="225"/><path fill="#00dafe" d="M530.045 365.724c-.175.03-.448-.212-.872-.682.157-.015.465.199.872.682" data-index="227"/><path fill="#00dafe" d="M527.148 379.9c-.186.099-.678.094-.924.092.082-.178.41-.355 1.025-.546.285-.014.085.357-.101.455z" data-index="228"/><path fill="#007efe" d="M324.61 732.804c.19.304.007.487-.455.42-.13-.073.23-.364.454-.42z" data-index="229"/><path fill="#007efe" d="M328.676 729.935c.021.19-.237.438-.751.785-.013-.177.23-.452.751-.785" data-index="230"/><path fill="#00c6ff" d="M345.87 460.326c.193-.02.47.253.855.803-.186.016-.48-.246-.856-.803z" data-index="231"/><path fill="#00dafe" d="M396.807 264.968c.197.126-.209.297-.209.297s-.346-.226-.394-.372.407-.05.603.075" data-index="232"/><path fill="#008aff" d="M307.324 782.168c.015-.171.297-.397.855-.643-.012.182-.3.385-.855.643" data-index="233"/><path fill="#007afe" d="M280.258 798.067c.034-.131.31-.314.842-.493-.03.149-.315.296-.842.493" data-index="234"/><path fill="#008aff" d="M285.333 795.208c-.005-.186.27-.436.823-.737.004.19-.27.432-.823.737" data-index="235"/><path fill="#00cfff" d="M658.705 401.934c.056.186-.156.467-.582.906-.038-.166.139-.488.582-.906" data-index="236"/><path fill="#008aff" d="M290.323 792.161q-.003-.274.846-.75.002.273-.846.75" data-index="237"/><path fill="#008aff" d="M295.315 789.178c-.007-.188.267-.43.813-.726.004.188-.264.43-.813.726" data-index="238"/><path fill="#00e5ff" d="M665.294 394.566c.04.176-.145.509-.615.929-.06-.2.164-.486.615-.93z" data-index="239"/><path fill="#00b3ff" d="M876.12 424.669c-.188.049-.482-.175-.933-.63.171-.036.499.16.933.63" data-index="240"/><path fill="#008aff" d="M304.29 784.01c-.274-.142-.284-.32-.296-.762.21-.233.42-.201.946-.092.08.324-.154.571-.65.853z" data-index="241"/><path fill="#00b3ff" d="M877.14 425.63c-.188.05-.488-.168-.939-.624.175-.04.5.158.939.624" data-index="242"/><path fill="#00c6ff" d="M328.896 441.3c.189-.038.473.2.907.674-.17.024-.49-.186-.907-.674" data-index="243"/><path fill="#00b3ff" d="M878.106 426.683c-.185.034-.466-.21-.885-.698.171-.023.48.2.885.698" data-index="244"/><path fill="#007afe" d="M264.653 778.875c.036.192-.21.47-.707.871-.026-.179.2-.482.707-.871" data-index="245"/><path fill="#007afe" d="M265.7 777.963c.034.183-.204.445-.676.84-.02-.165.192-.462.677-.84z" data-index="246"/><path fill="#00b3ff" d="M880.46 429.35c-.182.023-.465-.166-.748-.626.258-.084.475.144.748.625z" data-index="247"/><path fill="#00b3ff" d="M881.174 430.655c-.187-.004-.437-.292-.733-.87.192.002.43.294.733.87" data-index="248"/><path fill="#00cfff" d="M318.621 432.874c.164-.07.506.053.967.438-.184.093-.486-.076-.967-.438" data-index="250"/><path fill="#00dafe" d="M226.159 385.749c.096.135.043.48-.202 1.016-.11-.141-.029-.474.202-1.016" data-index="251"/><path fill="#00c6ff" d="M326.747 439.443c.196-.065.526.143 1.032.59-.182.055-.54-.13-1.032-.59" data-index="252"/><path fill="#00c6ff" d="M327.846 440.351c.192-.054.497.167.968.62-.173.04-.514-.152-.968-.62" data-index="253"/><path fill="#0093fe" d="M489.793 566.862c.133-.106.463-.066.977.157-.148.166-.468.101-.977-.157" data-index="254"/><path fill="#00c1ff" d="M482.05 322.685c-.183.028-.435-.214-.802-.694.167-.017.45.203.801.694z" data-index="255"/><path fill="#009dfe" d="M662.324 662.132c-.01-.19.274-.45.841-.801.006.184-.27.456-.841.8z" data-index="256"/><path fill="#00c1ff" d="M488.037 327.647c-.175.054-.44-.145-.856-.545.155-.037.46.129.856.545" data-index="257"/><path fill="#0af" d="M619.432 552.703c.1.186-.045.54-.406 1.087-.091-.178.035-.549.406-1.087" data-index="258"/><path fill="#009dfe" d="M672.236 654.896c-.058-.212.18-.44.67-.757.004.148-.205.423-.67.757" data-index="259"/><path fill="#009dfe" d="M674.32 653.092c-.033-.176.21-.462.698-.892.023.165-.201.473-.699.892z" data-index="260"/><path fill="#009dfe" d="M675.357 652.185c-.03-.199.231-.489.767-.897.024.19-.225.498-.767.897" data-index="261"/><path fill="#009dfe" d="M676.452 651.307q-.05-.306.767-.922.05.306-.767.922" data-index="262"/><path fill="#009dfe" d="M677.58 650.42c-.036-.2.185-.516.7-.895.048.217-.198.498-.7.895" data-index="263"/><path fill="#009dfe" d="M680.261 647.97c-.037-.174.183-.43.616-.826.022.155-.168.45-.616.827z" data-index="264"/><path fill="#00dafe" d="M507.122 343.882c.338.112.624.277.994.68.084.24-.027.35-.284.278-.512-.266-.713-.507-.86-.794 0 0 .097-.112.15-.164" data-index="265"/><path fill="#009dfe" d="M685.312 643.085c-.04-.175.185-.463.638-.908.027.16-.174.477-.638.908" data-index="266"/><path fill="#009dfe" d="M686.296 642.075c-.034-.18.2-.46.67-.888.023.165-.189.476-.67.888" data-index="267"/><path fill="#009dfe" d="M688.276 640.036c-.043-.17.167-.448.591-.88.03.154-.153.462-.59.88z" data-index="268"/><path fill="#008aff" d="M485.69 637.828c-.034.159-.31.35-.847.508-.03-.29.258-.439.847-.508" data-index="269"/><path fill="#0093fe" d="M496.794 570.9c.133-.103.458-.063.957.166-.153.18-.465.11-.957-.166" data-index="270"/><path fill="#009dfe" d="M691.508 636.3c-.083-.21.113-.55.558-1.06.073.197-.104.562-.558 1.06" data-index="271"/><path fill="#00dafe" d="M498.12 335.663c-.183.054-.479-.159-.945-.59.164-.036.497.144.944.59z" data-index="272"/><path fill="#00dafe" d="M611.703 335.295c-.396.076-.65-.035-1.017-.377-.147-.151.077-.56.408-.616.577.15.776.393.927.676 0 0-.211.212-.318.317" data-index="273"/><path fill="#009dfe" d="M694.275 633.046c-.055-.176.146-.455.552-.89.039.158-.129.473-.552.89" data-index="274"/><path fill="#009dfe" d="M696.42 630.23c-.076-.204.122-.531.555-1.03.063.189-.108.547-.554 1.03z" data-index="275"/><path fill="#00dafe" d="M495.231 333.227c-.135.09-.473.017-1.005-.233.138-.095.47-.012 1.005.233" data-index="276"/><path fill="#00bdff" d="M540.41 510.075c.123.155-.362.158-.362.158s-.348-.336-.355-.58c.221-.107.422.064.717.422" data-index="277"/><path fill="#00dafe" d="M526.097 361.698c-.168.025-.462-.214-.914-.692.158-.017.473.205.914.692" data-index="278"/><path fill="#00b7fe" d="M520.085 485.688c-.197.058-.483-.16-.922-.601.176-.041.505.143.922.601" data-index="279"/><path fill="#00b7fe" d="M522.072 488.688c-.19.055-.474-.16-.912-.592.17-.038.494.142.912.592" data-index="280"/><path fill="#0083ff" d="M391.679 689.9c.157.296-.048.466-.508.395-.133-.068.268-.347.508-.394z" data-index="281"/><path fill="#00bdff" d="M531.191 500.64c-.2.061-.514-.154-.998-.601.182-.047.532.138.998.6z" data-index="282"/><path fill="#00cfff" d="M438.283 290.253c-.155.091-.495-.008-1.01-.316.158-.098.492.014 1.01.316" data-index="283"/><path fill="#00bdff" d="M532.148 501.662c-.194.038-.488-.213-.925-.72.18-.028.502.202.925.72" data-index="284"/><path fill="#00bdff" d="M533.114 502.673c-.178.037-.473-.199-.927-.673.164-.025.486.188.927.673" data-index="285"/><path fill="#00bdff" d="M537.419 507.086c-.25.267-.523.154-.702-.425.224-.104.419.067.702.425" data-index="286"/><path fill="#00bdff" d="M538.42 508.078c.116.155-.362.16-.362.16s-.34-.337-.337-.579c.227-.107.42.062.7.42z" data-index="287"/><path fill="#00bdff" d="M539.43 509.107c-.256.263-.533.143-.712-.447.23-.103.428.074.713.447z" data-index="288"/><path fill="#00dafe" d="M528.074 363.709c-.17.024-.454-.219-.89-.7.158-.014.467.21.89.7" data-index="289"/><path fill="#00bdff" d="M541.42 511.056c.109.15-.358.168-.358.168s-.332-.329-.321-.564c.228-.11.415.05.68.396z" data-index="290"/><path fill="#00bdff" d="M542.411 512.037c.107.146-.352.174-.352.174s-.328-.322-.316-.554c.225-.112.408.044.668.38" data-index="291"/><path fill="#00cfff" d="M454.054 301.698c-.18.019-.431-.238-.792-.743.167-.01.442.228.792.743" data-index="292"/><path fill="#00bdff" d="M546.17 515.668c-.195.043-.501-.198-.966-.685.179-.031.516.185.966.685" data-index="293"/><path fill="#00bdff" d="M547.229 516.593c-.199.058-.524-.164-1.016-.635.185-.047.537.153 1.016.635" data-index="294"/><path fill="#00bdff" d="M549.942 518.832c.085.168-.329.28-.329.28s-.163-.333-.121-.485c.041-.153.365.038.45.205" data-index="295"/><path fill="#00c6ff" d="M468.832 311.975c.155.166-.252.284-.252.284s-.298-.27-.32-.418c-.02-.148.417-.03.572.134" data-index="296"/><path fill="#008aff" d="M649.338 670.147c-.158-.312.052-.481.524-.382.132.077-.285.333-.524.382" data-index="297"/><path fill="#00dafe" d="M510.303 346.7c.429-.026.699.14 1.052.587.134.199-.113.465-.441.466-.582-.202-.782-.448-.93-.737z" data-index="298"/><path fill="#009dfe" d="M654.306 667.186c.002-.176.28-.413.831-.7q-.005.267-.831.7" data-index="299"/><path fill="#008aff" d="M719.733 550.35c.234 1.726.244 3.742.252 6.19-.16-1.68-.317-3.79-.252-6.19" data-index="300"/><path fill="#00afff" d="M724.14 443.661c-2.463 2.404-4.748 4.52-7.105 6.967-.072.332-.553.355-.99.5-.68.353-.88.598-1.033.88 0 0-.007-.001-.382.005-4.427 1.564-9.085 2.323-12.415 4.839-8.438 6.376-18.012 6.875-27.849 7.215-3.115.107-6.827.069-9.167 1.686-4.004 2.768-8.108 3.229-12.551 3.073-6.233-.22-12.461-.557-18.691-.844 1.854-9.48 3.708-18.96 5.797-28.715 6.048 2.273 11.803.468 16.397-2.432 5.847-3.69 11.785-3.846 18.107-3.78 1.874.02 3.757-.523 5.632-.83 2.81-.46 5.663-.76 8.414-1.46 2.831-.72 5.587-1.77 8.33-2.796 4.437-1.66 8.79-3.55 13.268-5.087 2.776-.954 6.429-.582 8.453-2.279 7.9-6.621 18.452-7.292 26.924-12.856 5.163-3.39 12.19-3.948 18.388-5.753.63-.183 1.596.054 1.92-.322 3.672-4.267 7.766-2.038 12.181-.936.383-.05.396-.024.504.219.362.48.616.72 1.075.99.204.03.592.176.79.35.532.271.866.37 1.11.477-.09.008-.087-.173.07.116.745.512 1.332.735 1.835.974-.084.017-.108-.153.096.114.83.43 1.454.592 1.997.765-.083.01-.081-.157.042.208 4.659 1.296 9.194 2.226 13.725 3.567.507 4.694-1.283 7.715-4.918 9.936-4.012 2.45-7.885 5.13-11.844 7.67-.689.441-1.475.893-2.262.996-8.988 1.188-18.03 2.052-26.962 3.557-4.476.754-10.372-2.077-13.026 4.33-5.228 2.79-10.456 5.58-15.86 8.656" data-index="301"/><path fill="#00c1ff" d="M612.33 335.12c-.46-.425-.659-.669-1.1-1.007 1.455-3.744 3.74-.997 5.611-.567 10.449 2.407 20.859 4.982 31.712 7.5 1.842.331 3.255.662 5.049.996 9.307 1.652 18.209 3.457 27.167 4.908 9.788 1.585 19.621 2.9 29.449 4.222 7.668 1.033 15.359 1.898 23.436 2.885 6.45 5.85 6.432 5.815-1.669 9.847-1.09.543-1.929 1.615-2.834 2.494-1.357 1.318-2.512 3.607-4.03 3.866-6.875 1.175-13.573 6.68-20.67 1.105-1.398 1.642-2.604 3.06-4.163 4.536-.351.06-.352-.406-.374-.638.008-.4.039-.57.103-.997-.963-1.194-1.84-2.763-2.971-2.974-20.755-3.869-40.17-11.615-59.668-20.258-3.124-1.692-5.888-3.322-9.003-5.011-1.448-.722-2.544-1.384-3.98-2.068-1.789-1.303-3.237-2.585-5.028-3.93-2.47-1.63-4.6-3.198-7.038-4.909z" data-index="302"/><path d="M779.939 402.12s-.388-.144-.672-.439c-.557-.519-.83-.744-1.103-.969 0 0-.013-.026-.007-.04-4.892-3.799-9.79-7.584-14.424-11.531 7.338.504 14.474.8 21.476 1.927 8.837 1.423 16.535 5.513 23.33 11.91.335.116.272.098.37.36.423.43.747.598 1.049.738-.022-.028-.057.033.039.307.38 1.133.662 1.991.489 2.755a4529 4529 0 0 0-25.322-2.554s-.002.167-.125-.093c-.747-.434-1.371-.608-1.995-.782 0 0 .024.17-.053-.119-.66-.523-1.246-.757-1.83-.99 0 0-.003.18-.067-.075-.427-.305-.791-.354-1.155-.404z" data-index="303"/><path fill="#00b8ff" d="M509.726 346.885c.406.42.606.666 1.06.998 1.023 1.03 1.845 1.93 2.939 2.975 1.703 1.797 3.133 3.451 4.916 5.127.55.564.747 1.107 1.152 1.857-.963 4.245-4.16 4.042-7.43 4.029-3.912-.016-7.823.267-11.735.392-1.458.047-2.923-.055-4.377.037-1.446.091-3.545-.206-4.218.609-5.169 6.255-13.486 5.548-19.872 9.266-7.056 4.107-15.074 6.562-22.67 9.744-.303.127-.59.48-.865.46-8.764-.643-15.34 4.916-22.83 7.918-3.181 1.274-6.65 1.931-10.045 2.554-6.679 1.225-13.398 2.235-20.102 3.32-.65.104-1.56-.148-1.937.205-4.543 4.254-10.571 5.179-15.979 4.77-6.904-.524-13.098 4.108-20.23 1.51-2.86-1.042-6.625.666-9.98.675-14.745.037-29.626-1.31-44.19.285-9.327 1.022-18.262.572-27.4.063-.922-.051-1.94 1.636-2.917 2.883-8.435-1.84-16.869-4.047-25.662-6.403-6.148-.987-11.936-1.825-18.05-2.89 3.05-1.484 6.463-3.902 9.794-3.793 12.426.404 24.652.13 36.564-3.977 1.635-.563 3.646-.488 5.396-.193 8.691 1.464 17.064.2 25.572-1.779 4.958-1.153 10.325-.518 15.506-.748 6.055-.269 12.105-.627 18.16-.9 3.09-.14 6.619.737 9.185-.47 4.647-2.186 8.795-1.694 13.354-.365 1.546.451 3.47-.254 5.195-.577 8.335-1.559 16.66-3.175 24.99-4.756 6.114-1.16 12.296-2.036 18.334-3.505 8.81-2.144 17.56-4.562 26.254-7.137 6.414-1.9 12.783-4.022 19.01-6.46 3.825-1.498 7.988-1.048 11.731-3.972 4.989-3.897 11.065-6.525 16.922-9.144 3.72-1.663 7.882-2.345 11.859-3.418 2.393-.645 4.813-1.197 7.57-1.954.776-.135 1.203-.107 1.951-.077.468.289.67.53 1.126.851.697.704 1.194 1.282 1.949 1.99" data-index="304"/><path fill="#00afff" d="M311.408 426.951c-1.142-.658-1.921-1.309-3.038-1.98-3.906-2.81-7.473-5.598-11.216-8.675 5.119.036 10.658 1.491 15.647.41 6.738-1.461 13.062-.258 19.54.349 2.041.191 4.013 1.128 6.012 1.738 1.08.33 2.187 1.076 3.218.978 17.83-1.698 35.625-4.297 53.484-4.847 6.288-.193 11.55-2.677 17.103-3.114 4.521-.356 8.934-4.767 14-1.28.926.636 3.506-1.342 5.393-1.852 4.37-1.182 8.868-1.942 13.154-3.358 5.064-1.672 9.979-3.81 14.913-5.855.987-.41 1.853-1.982 2.636-1.885 8.55 1.051 13.68-5.688 20.408-8.73 2.832-1.28 5.571-2.946 8.54-3.705 7.122-1.822 14.313-3.465 21.562-4.664 3.467-.573 7.129.028 10.979.318-.042.999-.359 1.776-.728 2.863-1.687 2.741-3.322 5.172-5.012 7.951-1.875 3.188-3.695 6.028-5.958 9.326-.643.994-.842 1.531-1.042 2.068 0 0-.003-.007-.332.056-1.096 1.057-1.865 2.05-2.633 3.044.01.401.021.803.042 1.504-.611 1.447-1.234 2.595-1.912 3.845-5.994-2.04-11.759-2.722-17.267 1.669-1.248.994-3.743.424-6.12.61-.926 2.84-2.57 5.32-6.65 3.64-.57-.235-1.95.178-2.19.666-2.244 4.584-5.756 5.562-10.358 4.064-.555-.18-1.326.092-1.935.319-5.306 1.978-10.467 4.546-15.932 5.833-4.804 1.132-9.964.655-14.926 1.24-3.721.44-7.345 1.742-11.068 2.126-9.91 1.024-19.85 1.76-29.778 2.605-.16.013-.328-.073-.492-.075-10.146-.084-20.315.243-30.43-.352-11.496-.677-23.326 2.062-34.434-2.963-1.164-.526-2.054-1.712-3.235-2.136-2.171-.78-4.464-1.219-7.062-1.738-1.078.04-1.8.017-2.883-.013" data-index="305"/><path fill="#0af" d="M633.734 468.282c6.453-.013 12.681.325 18.914.544 4.443.156 8.547-.305 12.551-3.073 2.34-1.617 6.052-1.579 9.167-1.686 9.837-.34 19.41-.839 27.85-7.215 3.329-2.516 7.987-3.275 12.42-4.833-.637 3.386-1.654 6.77-2.68 10.556-.817 5.66-1.896 10.894-2.345 16.183-.317 3.742.219 7.558.364 11.803-1.03 2.368-1.598 5.105-3.183 5.962-1.917 1.036-4.694.49-7.1.608-1.761.086-3.526.118-5.287.209-2.276.118-4.81-.331-6.78.516-7.796 3.35-15.816 4.28-24.197 3.689-2.574-.182-5.246 1.114-7.832.975-6.684-.36-13.359-1.042-20-1.886-.817-.104-1.408-1.98-2.33-3.312-.233-1.693-.24-3.108-.038-5.149.084-1.455-.041-2.284-.166-3.113-.007-3.074-.014-6.149.209-9.957.088-2.496-.053-4.258-.195-6.02.146-1.5.29-3 .658-4.8z" data-index="306"/><path fill="#0af" d="M740.436 435c2.218-6.402 8.114-3.571 12.59-4.325 8.933-1.505 17.974-2.369 26.962-3.557.787-.103 1.573-.555 2.262-.997 3.959-2.54 7.832-5.218 11.844-7.67 3.635-2.22 5.425-5.24 5.316-9.89 4.104-.46 7.806-.553 11.85-.641.937-.575 1.534-1.155 2.13-1.736l-3.49-2.075s.036-.06-.102-.242a9.5 9.5 0 0 0-.987-.791s.063.018.034.034c-1.833-2.92-3.637-5.858-5.77-9.33l6.847-1.361c.134-2.732.243-4.93.674-7.217 2.102 1.866 3.882 3.823 6.01 5.813 3.789 3.318 7.23 6.6 11.014 9.953 3.094 1.725 5.845 3.38 8.966 5.067.9.601 1.43 1.171 2.213 1.897.169 6.007-5.02 7.864-8.423 11.038-5.275 4.924-10.785 9.596-16.287 14.703-1.5.318-2.908.309-4.969.081-1.79-.085-2.927.048-4.064.18-17.694.032-35.388.064-53.546.103-3.855.323-7.247.64-11.074.962z" data-index="307"/><path fill="#009dfe" d="M633.063 473.498a34.4 34.4 0 0 1 .226 5.144c-.221-1.394-.23-3.061-.226-5.144" data-index="308"/><path fill="#009dfe" d="M633.048 489.421c.139.468.264 1.297.194 2.329-.199-.521-.203-1.244-.194-2.329" data-index="309"/><path fill="#009dfe" d="M805.378 433.958a13.7 13.7 0 0 1 3.32-.215c-.2.217-.63.227-1.384.253a31 31 0 0 1-1.936-.038" data-index="310"/><path fill="#00c1ff" d="M609.516 331.517c-.026.011.027-.011 0 0" data-index="311"/><path fill="#0af" d="M508.364 406.026c.442-.913 1.21-1.906 2.312-2.96-.44.918-1.214 1.9-2.312 2.96" data-index="312"/><path fill="#0af" d="M511.214 402.808q-.018-.507.601-1.61.017.508-.601 1.61" data-index="313"/><path fill="#0af" d="M715.208 451.874q-.065-.222.597-.736.062.22-.597.736" data-index="314"/><path fill="#00cfff" d="M810.918 407.914c-3.702.094-7.404.188-11.504.237-4.933-.976-9.468-1.906-14.127-3.202 8.166.455 16.454 1.275 25.192 2.36.45.264.44.605.44.605z" data-index="315"/><path fill="#00cfff" d="M783.248 403.976c.42-.093 1.044.081 1.874.505-.42.087-1.045-.075-1.874-.505" data-index="316"/><path fill="#00cfff" d="M781.317 402.888c.428-.055 1.013.179 1.759.685-.427.05-1.014-.173-1.759-.685" data-index="317"/><path fill="#00cfff" d="M780.136 402.294c.167-.123.53-.074 1.048.223-.18.148-.515.05-1.048-.223" data-index="318"/><path fill="#00b7fe" d="M778.272 400.955c.165-.018.438.207.79.695-.174.024-.428-.214-.79-.695" data-index="319"/><path fill="#00b3ff" d="M811.26 407.92c-.342-.006-.33-.347-.325-.517-.276-1.029-.559-1.887-.938-3.02 1.067.418 2.23 1.11 3.393 1.8-.596.582-1.193 1.162-2.13 1.737" data-index="320"/><path fill="#00b3ff" d="M808.91 403.338c.184-.059.467.145.91.557-.164.04-.488-.127-.91-.557" data-index="321"/></svg>